<svg width="600" height="300" viewBox="0 0 600 300" fill="none" xmlns="http://www.w3.org/2000/svg">
<rect width="600" height="300" fill="#212121"/>
<path fill-rule="evenodd" clip-rule="evenodd" d="M131.339 189L131 188.862L163.173 110.048L163.147 110H182.891V110.111L201.936 156.536L201.82 156.583L201.824 156.59L146.695 189H131.339ZM210 178.418C210 183.859 205.595 188.27 200.161 188.27C194.727 188.27 190.322 183.859 190.322 178.418C190.322 172.977 194.727 168.566 200.161 168.566C205.595 168.566 210 172.977 210 178.418ZM172.69 128.116L156.895 166.172L182.289 151.244L172.69 128.116Z" fill="#2D2D2D"/>
<path d="M235.254 122V114.3H238.389C239.21 114.3 239.929 114.465 240.545 114.795C241.168 115.118 241.652 115.569 241.997 116.148C242.342 116.727 242.514 117.395 242.514 118.15C242.514 118.905 242.342 119.573 241.997 120.152C241.652 120.731 241.168 121.186 240.545 121.516C239.929 121.839 239.21 122 238.389 122H235.254ZM236.068 121.296H238.345C239.027 121.296 239.617 121.164 240.116 120.9C240.622 120.629 241.014 120.258 241.293 119.789C241.572 119.312 241.711 118.766 241.711 118.15C241.711 117.527 241.572 116.98 241.293 116.511C241.014 116.042 240.622 115.675 240.116 115.411C239.617 115.14 239.027 115.004 238.345 115.004H236.068V121.296ZM244.177 122V116.225H244.925V117.798L244.848 117.523C245.009 117.083 245.281 116.749 245.662 116.522C246.043 116.287 246.516 116.17 247.081 116.17V116.929C247.052 116.929 247.022 116.929 246.993 116.929C246.964 116.922 246.934 116.918 246.905 116.918C246.296 116.918 245.82 117.105 245.475 117.479C245.13 117.846 244.958 118.37 244.958 119.052V122H244.177ZM250.806 122.055C250.249 122.055 249.747 121.93 249.299 121.681C248.859 121.424 248.511 121.076 248.254 120.636C247.998 120.189 247.869 119.679 247.869 119.107C247.869 118.528 247.998 118.018 248.254 117.578C248.511 117.138 248.859 116.793 249.299 116.544C249.739 116.295 250.242 116.17 250.806 116.17C251.378 116.17 251.884 116.295 252.324 116.544C252.772 116.793 253.12 117.138 253.369 117.578C253.626 118.018 253.754 118.528 253.754 119.107C253.754 119.679 253.626 120.189 253.369 120.636C253.12 121.076 252.772 121.424 252.324 121.681C251.877 121.93 251.371 122.055 250.806 122.055ZM250.806 121.362C251.224 121.362 251.595 121.27 251.917 121.087C252.24 120.896 252.493 120.632 252.676 120.295C252.867 119.95 252.962 119.554 252.962 119.107C252.962 118.652 252.867 118.256 252.676 117.919C252.493 117.582 252.24 117.321 251.917 117.138C251.595 116.947 251.228 116.852 250.817 116.852C250.407 116.852 250.04 116.947 249.717 117.138C249.395 117.321 249.138 117.582 248.947 117.919C248.757 118.256 248.661 118.652 248.661 119.107C248.661 119.554 248.757 119.95 248.947 120.295C249.138 120.632 249.395 120.896 249.717 121.087C250.04 121.27 250.403 121.362 250.806 121.362ZM258.33 122.055C257.831 122.055 257.38 121.941 256.977 121.714C256.573 121.479 256.251 121.146 256.009 120.713C255.774 120.273 255.657 119.738 255.657 119.107C255.657 118.476 255.774 117.945 256.009 117.512C256.243 117.072 256.562 116.738 256.966 116.511C257.369 116.284 257.824 116.17 258.33 116.17C258.88 116.17 259.371 116.295 259.804 116.544C260.244 116.786 260.588 117.131 260.838 117.578C261.087 118.018 261.212 118.528 261.212 119.107C261.212 119.694 261.087 120.207 260.838 120.647C260.588 121.087 260.244 121.432 259.804 121.681C259.371 121.93 258.88 122.055 258.33 122.055ZM255.349 124.134V116.225H256.097V117.963L256.02 119.118L256.13 120.284V124.134H255.349ZM258.275 121.362C258.685 121.362 259.052 121.27 259.375 121.087C259.697 120.896 259.954 120.632 260.145 120.295C260.335 119.95 260.431 119.554 260.431 119.107C260.431 118.66 260.335 118.267 260.145 117.93C259.954 117.593 259.697 117.329 259.375 117.138C259.052 116.947 258.685 116.852 258.275 116.852C257.864 116.852 257.494 116.947 257.164 117.138C256.841 117.329 256.584 117.593 256.394 117.93C256.21 118.267 256.119 118.66 256.119 119.107C256.119 119.554 256.21 119.95 256.394 120.295C256.584 120.632 256.841 120.896 257.164 121.087C257.494 121.27 257.864 121.362 258.275 121.362ZM265.683 122V116.225H266.464V122H265.683ZM266.079 114.949C265.917 114.949 265.782 114.894 265.672 114.784C265.562 114.674 265.507 114.542 265.507 114.388C265.507 114.234 265.562 114.106 265.672 114.003C265.782 113.893 265.917 113.838 266.079 113.838C266.24 113.838 266.376 113.889 266.486 113.992C266.596 114.095 266.651 114.223 266.651 114.377C266.651 114.538 266.596 114.674 266.486 114.784C266.383 114.894 266.247 114.949 266.079 114.949ZM275.853 116.17C276.322 116.17 276.729 116.262 277.074 116.445C277.426 116.621 277.697 116.892 277.888 117.259C278.086 117.626 278.185 118.088 278.185 118.645V122H277.404V118.722C277.404 118.113 277.257 117.655 276.964 117.347C276.678 117.032 276.271 116.874 275.743 116.874C275.347 116.874 275.002 116.958 274.709 117.127C274.423 117.288 274.199 117.527 274.038 117.842C273.884 118.15 273.807 118.524 273.807 118.964V122H273.026V118.722C273.026 118.113 272.879 117.655 272.586 117.347C272.293 117.032 271.882 116.874 271.354 116.874C270.965 116.874 270.624 116.958 270.331 117.127C270.038 117.288 269.81 117.527 269.649 117.842C269.495 118.15 269.418 118.524 269.418 118.964V122H268.637V116.225H269.385V117.787L269.264 117.512C269.44 117.094 269.722 116.768 270.111 116.533C270.507 116.291 270.973 116.17 271.508 116.17C272.073 116.17 272.553 116.313 272.949 116.599C273.345 116.878 273.602 117.299 273.719 117.864L273.411 117.743C273.58 117.274 273.877 116.896 274.302 116.61C274.735 116.317 275.252 116.17 275.853 116.17ZM283.922 122V120.724L283.889 120.515V118.381C283.889 117.89 283.75 117.512 283.471 117.248C283.2 116.984 282.793 116.852 282.25 116.852C281.876 116.852 281.52 116.914 281.183 117.039C280.846 117.164 280.56 117.329 280.325 117.534L279.973 116.951C280.266 116.702 280.618 116.511 281.029 116.379C281.44 116.24 281.872 116.17 282.327 116.17C283.075 116.17 283.651 116.357 284.054 116.731C284.465 117.098 284.67 117.659 284.67 118.414V122H283.922ZM281.931 122.055C281.498 122.055 281.121 121.985 280.798 121.846C280.483 121.699 280.241 121.501 280.072 121.252C279.903 120.995 279.819 120.702 279.819 120.372C279.819 120.071 279.889 119.8 280.028 119.558C280.175 119.309 280.409 119.111 280.732 118.964C281.062 118.81 281.502 118.733 282.052 118.733H284.043V119.316H282.074C281.517 119.316 281.128 119.415 280.908 119.613C280.695 119.811 280.589 120.057 280.589 120.35C280.589 120.68 280.717 120.944 280.974 121.142C281.231 121.34 281.59 121.439 282.052 121.439C282.492 121.439 282.87 121.34 283.185 121.142C283.508 120.937 283.742 120.643 283.889 120.262L284.065 120.801C283.918 121.182 283.662 121.487 283.295 121.714C282.936 121.941 282.481 122.055 281.931 122.055ZM289.255 124.189C288.727 124.189 288.221 124.112 287.737 123.958C287.253 123.804 286.861 123.584 286.56 123.298L286.956 122.704C287.227 122.946 287.561 123.137 287.957 123.276C288.36 123.423 288.786 123.496 289.233 123.496C289.966 123.496 290.505 123.324 290.85 122.979C291.195 122.642 291.367 122.114 291.367 121.395V119.954L291.477 118.964L291.4 117.974V116.225H292.148V121.296C292.148 122.293 291.902 123.023 291.411 123.485C290.927 123.954 290.208 124.189 289.255 124.189ZM289.112 121.78C288.562 121.78 288.067 121.663 287.627 121.428C287.187 121.186 286.839 120.852 286.582 120.427C286.333 120.002 286.208 119.514 286.208 118.964C286.208 118.414 286.333 117.93 286.582 117.512C286.839 117.087 287.187 116.757 287.627 116.522C288.067 116.287 288.562 116.17 289.112 116.17C289.625 116.17 290.087 116.276 290.498 116.489C290.909 116.702 291.235 117.017 291.477 117.435C291.719 117.853 291.84 118.363 291.84 118.964C291.84 119.565 291.719 120.075 291.477 120.493C291.235 120.911 290.909 121.23 290.498 121.45C290.087 121.67 289.625 121.78 289.112 121.78ZM289.189 121.087C289.614 121.087 289.992 120.999 290.322 120.823C290.652 120.64 290.912 120.39 291.103 120.075C291.294 119.752 291.389 119.382 291.389 118.964C291.389 118.546 291.294 118.179 291.103 117.864C290.912 117.549 290.652 117.303 290.322 117.127C289.992 116.944 289.614 116.852 289.189 116.852C288.771 116.852 288.393 116.944 288.056 117.127C287.726 117.303 287.466 117.549 287.275 117.864C287.092 118.179 287 118.546 287 118.964C287 119.382 287.092 119.752 287.275 120.075C287.466 120.39 287.726 120.64 288.056 120.823C288.393 120.999 288.771 121.087 289.189 121.087ZM296.774 122.055C296.173 122.055 295.645 121.93 295.19 121.681C294.736 121.424 294.38 121.076 294.123 120.636C293.867 120.189 293.738 119.679 293.738 119.107C293.738 118.535 293.859 118.029 294.101 117.589C294.351 117.149 294.688 116.804 295.113 116.555C295.546 116.298 296.03 116.17 296.565 116.17C297.108 116.17 297.588 116.295 298.006 116.544C298.432 116.786 298.765 117.131 299.007 117.578C299.249 118.018 299.37 118.528 299.37 119.107C299.37 119.144 299.367 119.184 299.359 119.228C299.359 119.265 299.359 119.305 299.359 119.349H294.332V118.766H298.941L298.633 118.997C298.633 118.579 298.542 118.209 298.358 117.886C298.182 117.556 297.94 117.299 297.632 117.116C297.324 116.933 296.969 116.841 296.565 116.841C296.169 116.841 295.814 116.933 295.498 117.116C295.183 117.299 294.937 117.556 294.761 117.886C294.585 118.216 294.497 118.594 294.497 119.019V119.14C294.497 119.58 294.593 119.969 294.783 120.306C294.981 120.636 295.253 120.896 295.597 121.087C295.949 121.27 296.349 121.362 296.796 121.362C297.148 121.362 297.475 121.3 297.775 121.175C298.083 121.05 298.347 120.86 298.567 120.603L299.007 121.109C298.751 121.417 298.428 121.652 298.039 121.813C297.658 121.974 297.236 122.055 296.774 122.055ZM303.971 122V115.499C303.971 114.986 304.121 114.571 304.422 114.256C304.723 113.941 305.155 113.783 305.72 113.783C305.94 113.783 306.153 113.812 306.358 113.871C306.563 113.93 306.736 114.021 306.875 114.146L306.611 114.729C306.501 114.634 306.373 114.564 306.226 114.52C306.079 114.469 305.922 114.443 305.753 114.443C305.423 114.443 305.17 114.535 304.994 114.718C304.818 114.901 304.73 115.173 304.73 115.532V116.412L304.752 116.775V122H303.971ZM302.937 116.874V116.225H306.512V116.874H302.937ZM309.824 122.055C309.267 122.055 308.764 121.93 308.317 121.681C307.877 121.424 307.529 121.076 307.272 120.636C307.015 120.189 306.887 119.679 306.887 119.107C306.887 118.528 307.015 118.018 307.272 117.578C307.529 117.138 307.877 116.793 308.317 116.544C308.757 116.295 309.259 116.17 309.824 116.17C310.396 116.17 310.902 116.295 311.342 116.544C311.789 116.793 312.138 117.138 312.387 117.578C312.644 118.018 312.772 118.528 312.772 119.107C312.772 119.679 312.644 120.189 312.387 120.636C312.138 121.076 311.789 121.424 311.342 121.681C310.895 121.93 310.389 122.055 309.824 122.055ZM309.824 121.362C310.242 121.362 310.612 121.27 310.935 121.087C311.258 120.896 311.511 120.632 311.694 120.295C311.885 119.95 311.98 119.554 311.98 119.107C311.98 118.652 311.885 118.256 311.694 117.919C311.511 117.582 311.258 117.321 310.935 117.138C310.612 116.947 310.246 116.852 309.835 116.852C309.424 116.852 309.058 116.947 308.735 117.138C308.412 117.321 308.156 117.582 307.965 117.919C307.774 118.256 307.679 118.652 307.679 119.107C307.679 119.554 307.774 119.95 307.965 120.295C308.156 120.632 308.412 120.896 308.735 121.087C309.058 121.27 309.421 121.362 309.824 121.362ZM314.366 122V113.838H315.147V122H314.366ZM319.619 122.055C319.069 122.055 318.574 121.93 318.134 121.681C317.702 121.432 317.361 121.087 317.111 120.647C316.862 120.2 316.737 119.686 316.737 119.107C316.737 118.52 316.862 118.007 317.111 117.567C317.361 117.127 317.702 116.786 318.134 116.544C318.574 116.295 319.069 116.17 319.619 116.17C320.125 116.17 320.576 116.284 320.972 116.511C321.376 116.738 321.695 117.072 321.929 117.512C322.171 117.945 322.292 118.476 322.292 119.107C322.292 119.73 322.175 120.262 321.94 120.702C321.706 121.142 321.387 121.479 320.983 121.714C320.587 121.941 320.133 122.055 319.619 122.055ZM319.674 121.362C320.085 121.362 320.452 121.27 320.774 121.087C321.104 120.896 321.361 120.632 321.544 120.295C321.735 119.95 321.83 119.554 321.83 119.107C321.83 118.652 321.735 118.256 321.544 117.919C321.361 117.582 321.104 117.321 320.774 117.138C320.452 116.947 320.085 116.852 319.674 116.852C319.271 116.852 318.908 116.947 318.585 117.138C318.263 117.321 318.006 117.582 317.815 117.919C317.625 118.256 317.529 118.652 317.529 119.107C317.529 119.554 317.625 119.95 317.815 120.295C318.006 120.632 318.263 120.896 318.585 121.087C318.908 121.27 319.271 121.362 319.674 121.362ZM321.852 122V120.262L321.929 119.096L321.819 117.93V113.838H322.6V122H321.852ZM327.229 122.055C326.627 122.055 326.099 121.93 325.645 121.681C325.19 121.424 324.834 121.076 324.578 120.636C324.321 120.189 324.193 119.679 324.193 119.107C324.193 118.535 324.314 118.029 324.556 117.589C324.805 117.149 325.142 116.804 325.568 116.555C326 116.298 326.484 116.17 327.02 116.17C327.562 116.17 328.043 116.295 328.461 116.544C328.886 116.786 329.22 117.131 329.462 117.578C329.704 118.018 329.825 118.528 329.825 119.107C329.825 119.144 329.821 119.184 329.814 119.228C329.814 119.265 329.814 119.305 329.814 119.349H324.787V118.766H329.396L329.088 118.997C329.088 118.579 328.996 118.209 328.813 117.886C328.637 117.556 328.395 117.299 328.087 117.116C327.779 116.933 327.423 116.841 327.02 116.841C326.624 116.841 326.268 116.933 325.953 117.116C325.637 117.299 325.392 117.556 325.216 117.886C325.04 118.216 324.952 118.594 324.952 119.019V119.14C324.952 119.58 325.047 119.969 325.238 120.306C325.436 120.636 325.707 120.896 326.052 121.087C326.404 121.27 326.803 121.362 327.251 121.362C327.603 121.362 327.929 121.3 328.23 121.175C328.538 121.05 328.802 120.86 329.022 120.603L329.462 121.109C329.205 121.417 328.882 121.652 328.494 121.813C328.112 121.974 327.691 122.055 327.229 122.055ZM331.414 122V116.225H332.162V117.798L332.085 117.523C332.247 117.083 332.518 116.749 332.899 116.522C333.281 116.287 333.754 116.17 334.318 116.17V116.929C334.289 116.929 334.26 116.929 334.23 116.929C334.201 116.922 334.172 116.918 334.142 116.918C333.534 116.918 333.057 117.105 332.712 117.479C332.368 117.846 332.195 118.37 332.195 119.052V122H331.414ZM341.656 116.17C342.125 116.17 342.536 116.262 342.888 116.445C343.247 116.621 343.526 116.892 343.724 117.259C343.929 117.626 344.032 118.088 344.032 118.645V122H343.251V118.722C343.251 118.113 343.097 117.655 342.789 117.347C342.488 117.032 342.063 116.874 341.513 116.874C341.102 116.874 340.743 116.958 340.435 117.127C340.134 117.288 339.9 117.527 339.731 117.842C339.57 118.15 339.489 118.524 339.489 118.964V122H338.708V113.838H339.489V117.809L339.335 117.512C339.518 117.094 339.812 116.768 340.215 116.533C340.618 116.291 341.099 116.17 341.656 116.17ZM348.595 122.055C347.993 122.055 347.465 121.93 347.011 121.681C346.556 121.424 346.2 121.076 345.944 120.636C345.687 120.189 345.559 119.679 345.559 119.107C345.559 118.535 345.68 118.029 345.922 117.589C346.171 117.149 346.508 116.804 346.934 116.555C347.366 116.298 347.85 116.17 348.386 116.17C348.928 116.17 349.409 116.295 349.827 116.544C350.252 116.786 350.586 117.131 350.828 117.578C351.07 118.018 351.191 118.528 351.191 119.107C351.191 119.144 351.187 119.184 351.18 119.228C351.18 119.265 351.18 119.305 351.18 119.349H346.153V118.766H350.762L350.454 118.997C350.454 118.579 350.362 118.209 350.179 117.886C350.003 117.556 349.761 117.299 349.453 117.116C349.145 116.933 348.789 116.841 348.386 116.841C347.99 116.841 347.634 116.933 347.319 117.116C347.003 117.299 346.758 117.556 346.582 117.886C346.406 118.216 346.318 118.594 346.318 119.019V119.14C346.318 119.58 346.413 119.969 346.604 120.306C346.802 120.636 347.073 120.896 347.418 121.087C347.77 121.27 348.169 121.362 348.617 121.362C348.969 121.362 349.295 121.3 349.596 121.175C349.904 121.05 350.168 120.86 350.388 120.603L350.828 121.109C350.571 121.417 350.248 121.652 349.86 121.813C349.478 121.974 349.057 122.055 348.595 122.055ZM352.78 122V116.225H353.528V117.798L353.451 117.523C353.613 117.083 353.884 116.749 354.265 116.522C354.647 116.287 355.12 116.17 355.684 116.17V116.929C355.655 116.929 355.626 116.929 355.596 116.929C355.567 116.922 355.538 116.918 355.508 116.918C354.9 116.918 354.423 117.105 354.078 117.479C353.734 117.846 353.561 118.37 353.561 119.052V122H352.78ZM359.509 122.055C358.907 122.055 358.379 121.93 357.925 121.681C357.47 121.424 357.114 121.076 356.858 120.636C356.601 120.189 356.473 119.679 356.473 119.107C356.473 118.535 356.594 118.029 356.836 117.589C357.085 117.149 357.422 116.804 357.848 116.555C358.28 116.298 358.764 116.17 359.3 116.17C359.842 116.17 360.323 116.295 360.741 116.544C361.166 116.786 361.5 117.131 361.742 117.578C361.984 118.018 362.105 118.528 362.105 119.107C362.105 119.144 362.101 119.184 362.094 119.228C362.094 119.265 362.094 119.305 362.094 119.349H357.067V118.766H361.676L361.368 118.997C361.368 118.579 361.276 118.209 361.093 117.886C360.917 117.556 360.675 117.299 360.367 117.116C360.059 116.933 359.703 116.841 359.3 116.841C358.904 116.841 358.548 116.933 358.233 117.116C357.917 117.299 357.672 117.556 357.496 117.886C357.32 118.216 357.232 118.594 357.232 119.019V119.14C357.232 119.58 357.327 119.969 357.518 120.306C357.716 120.636 357.987 120.896 358.332 121.087C358.684 121.27 359.083 121.362 359.531 121.362C359.883 121.362 360.209 121.3 360.51 121.175C360.818 121.05 361.082 120.86 361.302 120.603L361.742 121.109C361.485 121.417 361.162 121.652 360.774 121.813C360.392 121.974 359.971 122.055 359.509 122.055ZM368.399 122.055C367.857 122.055 367.439 121.908 367.145 121.615C366.852 121.322 366.705 120.907 366.705 120.372V114.949H367.486V120.328C367.486 120.665 367.571 120.926 367.739 121.109C367.915 121.292 368.165 121.384 368.487 121.384C368.832 121.384 369.118 121.285 369.345 121.087L369.62 121.648C369.466 121.787 369.279 121.89 369.059 121.956C368.847 122.022 368.627 122.055 368.399 122.055ZM365.671 116.874V116.225H369.246V116.874H365.671ZM373.192 122.055C372.635 122.055 372.132 121.93 371.685 121.681C371.245 121.424 370.897 121.076 370.64 120.636C370.383 120.189 370.255 119.679 370.255 119.107C370.255 118.528 370.383 118.018 370.64 117.578C370.897 117.138 371.245 116.793 371.685 116.544C372.125 116.295 372.627 116.17 373.192 116.17C373.764 116.17 374.27 116.295 374.71 116.544C375.157 116.793 375.506 117.138 375.755 117.578C376.012 118.018 376.14 118.528 376.14 119.107C376.14 119.679 376.012 120.189 375.755 120.636C375.506 121.076 375.157 121.424 374.71 121.681C374.263 121.93 373.757 122.055 373.192 122.055ZM373.192 121.362C373.61 121.362 373.98 121.27 374.303 121.087C374.626 120.896 374.879 120.632 375.062 120.295C375.253 119.95 375.348 119.554 375.348 119.107C375.348 118.652 375.253 118.256 375.062 117.919C374.879 117.582 374.626 117.321 374.303 117.138C373.98 116.947 373.614 116.852 373.203 116.852C372.792 116.852 372.426 116.947 372.103 117.138C371.78 117.321 371.524 117.582 371.333 117.919C371.142 118.256 371.047 118.652 371.047 119.107C371.047 119.554 371.142 119.95 371.333 120.295C371.524 120.632 371.78 120.896 372.103 121.087C372.426 121.27 372.789 121.362 373.192 121.362ZM382.967 122.055C382.41 122.055 381.908 121.93 381.46 121.681C381.02 121.424 380.672 121.076 380.415 120.636C380.159 120.189 380.03 119.679 380.03 119.107C380.03 118.528 380.159 118.018 380.415 117.578C380.672 117.138 381.02 116.793 381.46 116.544C381.9 116.295 382.403 116.17 382.967 116.17C383.539 116.17 384.045 116.295 384.485 116.544C384.933 116.793 385.281 117.138 385.53 117.578C385.787 118.018 385.915 118.528 385.915 119.107C385.915 119.679 385.787 120.189 385.53 120.636C385.281 121.076 384.933 121.424 384.485 121.681C384.038 121.93 383.532 122.055 382.967 122.055ZM382.967 121.362C383.385 121.362 383.756 121.27 384.078 121.087C384.401 120.896 384.654 120.632 384.837 120.295C385.028 119.95 385.123 119.554 385.123 119.107C385.123 118.652 385.028 118.256 384.837 117.919C384.654 117.582 384.401 117.321 384.078 117.138C383.756 116.947 383.389 116.852 382.978 116.852C382.568 116.852 382.201 116.947 381.878 117.138C381.556 117.321 381.299 117.582 381.108 117.919C380.918 118.256 380.822 118.652 380.822 119.107C380.822 119.554 380.918 119.95 381.108 120.295C381.299 120.632 381.556 120.896 381.878 121.087C382.201 121.27 382.564 121.362 382.967 121.362ZM390.491 122.055C389.992 122.055 389.541 121.941 389.138 121.714C388.735 121.479 388.412 121.146 388.17 120.713C387.935 120.273 387.818 119.738 387.818 119.107C387.818 118.476 387.935 117.945 388.17 117.512C388.405 117.072 388.724 116.738 389.127 116.511C389.53 116.284 389.985 116.17 390.491 116.17C391.041 116.17 391.532 116.295 391.965 116.544C392.405 116.786 392.75 117.131 392.999 117.578C393.248 118.018 393.373 118.528 393.373 119.107C393.373 119.694 393.248 120.207 392.999 120.647C392.75 121.087 392.405 121.432 391.965 121.681C391.532 121.93 391.041 122.055 390.491 122.055ZM387.51 124.134V116.225H388.258V117.963L388.181 119.118L388.291 120.284V124.134H387.51ZM390.436 121.362C390.847 121.362 391.213 121.27 391.536 121.087C391.859 120.896 392.115 120.632 392.306 120.295C392.497 119.95 392.592 119.554 392.592 119.107C392.592 118.66 392.497 118.267 392.306 117.93C392.115 117.593 391.859 117.329 391.536 117.138C391.213 116.947 390.847 116.852 390.436 116.852C390.025 116.852 389.655 116.947 389.325 117.138C389.002 117.329 388.746 117.593 388.555 117.93C388.372 118.267 388.28 118.66 388.28 119.107C388.28 119.554 388.372 119.95 388.555 120.295C388.746 120.632 389.002 120.896 389.325 121.087C389.655 121.27 390.025 121.362 390.436 121.362ZM397.418 122.055C396.817 122.055 396.289 121.93 395.834 121.681C395.379 121.424 395.024 121.076 394.767 120.636C394.51 120.189 394.382 119.679 394.382 119.107C394.382 118.535 394.503 118.029 394.745 117.589C394.994 117.149 395.332 116.804 395.757 116.555C396.19 116.298 396.674 116.17 397.209 116.17C397.752 116.17 398.232 116.295 398.65 116.544C399.075 116.786 399.409 117.131 399.651 117.578C399.893 118.018 400.014 118.528 400.014 119.107C400.014 119.144 400.01 119.184 400.003 119.228C400.003 119.265 400.003 119.305 400.003 119.349H394.976V118.766H399.585L399.277 118.997C399.277 118.579 399.185 118.209 399.002 117.886C398.826 117.556 398.584 117.299 398.276 117.116C397.968 116.933 397.612 116.841 397.209 116.841C396.813 116.841 396.457 116.933 396.142 117.116C395.827 117.299 395.581 117.556 395.405 117.886C395.229 118.216 395.141 118.594 395.141 119.019V119.14C395.141 119.58 395.236 119.969 395.427 120.306C395.625 120.636 395.896 120.896 396.241 121.087C396.593 121.27 396.993 121.362 397.44 121.362C397.792 121.362 398.118 121.3 398.419 121.175C398.727 121.05 398.991 120.86 399.211 120.603L399.651 121.109C399.394 121.417 399.072 121.652 398.683 121.813C398.302 121.974 397.88 122.055 397.418 122.055ZM404.552 116.17C405.021 116.17 405.432 116.262 405.784 116.445C406.143 116.621 406.422 116.892 406.62 117.259C406.825 117.626 406.928 118.088 406.928 118.645V122H406.147V118.722C406.147 118.113 405.993 117.655 405.685 117.347C405.384 117.032 404.959 116.874 404.409 116.874C403.998 116.874 403.639 116.958 403.331 117.127C403.03 117.288 402.795 117.527 402.627 117.842C402.465 118.15 402.385 118.524 402.385 118.964V122H401.604V116.225H402.352V117.809L402.231 117.512C402.414 117.094 402.707 116.768 403.111 116.533C403.514 116.291 403.994 116.17 404.552 116.17ZM411.916 122V116.225H412.697V122H411.916ZM412.312 114.949C412.151 114.949 412.015 114.894 411.905 114.784C411.795 114.674 411.74 114.542 411.74 114.388C411.74 114.234 411.795 114.106 411.905 114.003C412.015 113.893 412.151 113.838 412.312 113.838C412.473 113.838 412.609 113.889 412.719 113.992C412.829 114.095 412.884 114.223 412.884 114.377C412.884 114.538 412.829 114.674 412.719 114.784C412.616 114.894 412.481 114.949 412.312 114.949ZM416.696 122.055C416.154 122.055 415.736 121.908 415.442 121.615C415.149 121.322 415.002 120.907 415.002 120.372V114.949H415.783V120.328C415.783 120.665 415.868 120.926 416.036 121.109C416.212 121.292 416.462 121.384 416.784 121.384C417.129 121.384 417.415 121.285 417.642 121.087L417.917 121.648C417.763 121.787 417.576 121.89 417.356 121.956C417.144 122.022 416.924 122.055 416.696 122.055ZM413.968 116.874V116.225H417.543V116.874H413.968Z" fill="#474747"/>
<path d="M238.62 143.066C238.041 143.066 237.502 142.971 237.003 142.78C236.512 142.582 236.083 142.307 235.716 141.955C235.357 141.596 235.074 141.181 234.869 140.712C234.671 140.235 234.572 139.715 234.572 139.15C234.572 138.585 234.671 138.068 234.869 137.599C235.074 137.122 235.357 136.708 235.716 136.356C236.083 135.997 236.512 135.722 237.003 135.531C237.494 135.333 238.033 135.234 238.62 135.234C239.199 135.234 239.735 135.333 240.226 135.531C240.717 135.722 241.143 135.993 241.502 136.345C241.869 136.697 242.151 137.111 242.349 137.588C242.554 138.065 242.657 138.585 242.657 139.15C242.657 139.715 242.554 140.235 242.349 140.712C242.151 141.189 241.869 141.603 241.502 141.955C241.143 142.307 240.717 142.582 240.226 142.78C239.735 142.971 239.199 143.066 238.62 143.066ZM238.62 142.34C239.082 142.34 239.507 142.263 239.896 142.109C240.292 141.948 240.633 141.724 240.919 141.438C241.212 141.145 241.44 140.807 241.601 140.426C241.762 140.037 241.843 139.612 241.843 139.15C241.843 138.688 241.762 138.266 241.601 137.885C241.44 137.496 241.212 137.159 240.919 136.873C240.633 136.58 240.292 136.356 239.896 136.202C239.507 136.041 239.082 135.96 238.62 135.96C238.158 135.96 237.729 136.041 237.333 136.202C236.937 136.356 236.592 136.58 236.299 136.873C236.013 137.159 235.786 137.496 235.617 137.885C235.456 138.266 235.375 138.688 235.375 139.15C235.375 139.605 235.456 140.026 235.617 140.415C235.786 140.804 236.013 141.145 236.299 141.438C236.592 141.724 236.937 141.948 237.333 142.109C237.729 142.263 238.158 142.34 238.62 142.34ZM247.298 143.055C246.799 143.055 246.348 142.941 245.945 142.714C245.541 142.479 245.219 142.146 244.977 141.713C244.742 141.273 244.625 140.738 244.625 140.107C244.625 139.476 244.742 138.945 244.977 138.512C245.211 138.072 245.53 137.738 245.934 137.511C246.337 137.284 246.792 137.17 247.298 137.17C247.848 137.17 248.339 137.295 248.772 137.544C249.212 137.786 249.556 138.131 249.806 138.578C250.055 139.018 250.18 139.528 250.18 140.107C250.18 140.694 250.055 141.207 249.806 141.647C249.556 142.087 249.212 142.432 248.772 142.681C248.339 142.93 247.848 143.055 247.298 143.055ZM244.317 145.134V137.225H245.065V138.963L244.988 140.118L245.098 141.284V145.134H244.317ZM247.243 142.362C247.653 142.362 248.02 142.27 248.343 142.087C248.665 141.896 248.922 141.632 249.113 141.295C249.303 140.95 249.399 140.554 249.399 140.107C249.399 139.66 249.303 139.267 249.113 138.93C248.922 138.593 248.665 138.329 248.343 138.138C248.02 137.947 247.653 137.852 247.243 137.852C246.832 137.852 246.462 137.947 246.132 138.138C245.809 138.329 245.552 138.593 245.362 138.93C245.178 139.267 245.087 139.66 245.087 140.107C245.087 140.554 245.178 140.95 245.362 141.295C245.552 141.632 245.809 141.896 246.132 142.087C246.462 142.27 246.832 142.362 247.243 142.362ZM254.225 143.055C253.623 143.055 253.095 142.93 252.641 142.681C252.186 142.424 251.83 142.076 251.574 141.636C251.317 141.189 251.189 140.679 251.189 140.107C251.189 139.535 251.31 139.029 251.552 138.589C251.801 138.149 252.138 137.804 252.564 137.555C252.996 137.298 253.48 137.17 254.016 137.17C254.558 137.17 255.039 137.295 255.457 137.544C255.882 137.786 256.216 138.131 256.458 138.578C256.7 139.018 256.821 139.528 256.821 140.107C256.821 140.144 256.817 140.184 256.81 140.228C256.81 140.265 256.81 140.305 256.81 140.349H251.783V139.766H256.392L256.084 139.997C256.084 139.579 255.992 139.209 255.809 138.886C255.633 138.556 255.391 138.299 255.083 138.116C254.775 137.933 254.419 137.841 254.016 137.841C253.62 137.841 253.264 137.933 252.949 138.116C252.633 138.299 252.388 138.556 252.212 138.886C252.036 139.216 251.948 139.594 251.948 140.019V140.14C251.948 140.58 252.043 140.969 252.234 141.306C252.432 141.636 252.703 141.896 253.048 142.087C253.4 142.27 253.799 142.362 254.247 142.362C254.599 142.362 254.925 142.3 255.226 142.175C255.534 142.05 255.798 141.86 256.018 141.603L256.458 142.109C256.201 142.417 255.878 142.652 255.49 142.813C255.108 142.974 254.687 143.055 254.225 143.055ZM261.358 137.17C261.828 137.17 262.238 137.262 262.59 137.445C262.95 137.621 263.228 137.892 263.426 138.259C263.632 138.626 263.734 139.088 263.734 139.645V143H262.953V139.722C262.953 139.113 262.799 138.655 262.491 138.347C262.191 138.032 261.765 137.874 261.215 137.874C260.805 137.874 260.445 137.958 260.137 138.127C259.837 138.288 259.602 138.527 259.433 138.842C259.272 139.15 259.191 139.524 259.191 139.964V143H258.41V137.225H259.158V138.809L259.037 138.512C259.221 138.094 259.514 137.768 259.917 137.533C260.321 137.291 260.801 137.17 261.358 137.17ZM268.723 143V137.225H269.504V143H268.723ZM269.119 135.949C268.957 135.949 268.822 135.894 268.712 135.784C268.602 135.674 268.547 135.542 268.547 135.388C268.547 135.234 268.602 135.106 268.712 135.003C268.822 134.893 268.957 134.838 269.119 134.838C269.28 134.838 269.416 134.889 269.526 134.992C269.636 135.095 269.691 135.223 269.691 135.377C269.691 135.538 269.636 135.674 269.526 135.784C269.423 135.894 269.287 135.949 269.119 135.949ZM278.893 137.17C279.362 137.17 279.769 137.262 280.114 137.445C280.466 137.621 280.737 137.892 280.928 138.259C281.126 138.626 281.225 139.088 281.225 139.645V143H280.444V139.722C280.444 139.113 280.297 138.655 280.004 138.347C279.718 138.032 279.311 137.874 278.783 137.874C278.387 137.874 278.042 137.958 277.749 138.127C277.463 138.288 277.239 138.527 277.078 138.842C276.924 139.15 276.847 139.524 276.847 139.964V143H276.066V139.722C276.066 139.113 275.919 138.655 275.626 138.347C275.333 138.032 274.922 137.874 274.394 137.874C274.005 137.874 273.664 137.958 273.371 138.127C273.078 138.288 272.85 138.527 272.689 138.842C272.535 139.15 272.458 139.524 272.458 139.964V143H271.677V137.225H272.425V138.787L272.304 138.512C272.48 138.094 272.762 137.768 273.151 137.533C273.547 137.291 274.013 137.17 274.548 137.17C275.113 137.17 275.593 137.313 275.989 137.599C276.385 137.878 276.642 138.299 276.759 138.864L276.451 138.743C276.62 138.274 276.917 137.896 277.342 137.61C277.775 137.317 278.292 137.17 278.893 137.17ZM286.962 143V141.724L286.929 141.515V139.381C286.929 138.89 286.79 138.512 286.511 138.248C286.24 137.984 285.833 137.852 285.29 137.852C284.916 137.852 284.56 137.914 284.223 138.039C283.886 138.164 283.6 138.329 283.365 138.534L283.013 137.951C283.306 137.702 283.658 137.511 284.069 137.379C284.48 137.24 284.912 137.17 285.367 137.17C286.115 137.17 286.691 137.357 287.094 137.731C287.505 138.098 287.71 138.659 287.71 139.414V143H286.962ZM284.971 143.055C284.538 143.055 284.161 142.985 283.838 142.846C283.523 142.699 283.281 142.501 283.112 142.252C282.943 141.995 282.859 141.702 282.859 141.372C282.859 141.071 282.929 140.8 283.068 140.558C283.215 140.309 283.449 140.111 283.772 139.964C284.102 139.81 284.542 139.733 285.092 139.733H287.083V140.316H285.114C284.557 140.316 284.168 140.415 283.948 140.613C283.735 140.811 283.629 141.057 283.629 141.35C283.629 141.68 283.757 141.944 284.014 142.142C284.271 142.34 284.63 142.439 285.092 142.439C285.532 142.439 285.91 142.34 286.225 142.142C286.548 141.937 286.782 141.643 286.929 141.262L287.105 141.801C286.958 142.182 286.702 142.487 286.335 142.714C285.976 142.941 285.521 143.055 284.971 143.055ZM292.295 145.189C291.767 145.189 291.261 145.112 290.777 144.958C290.293 144.804 289.901 144.584 289.6 144.298L289.996 143.704C290.268 143.946 290.601 144.137 290.997 144.276C291.401 144.423 291.826 144.496 292.273 144.496C293.007 144.496 293.546 144.324 293.89 143.979C294.235 143.642 294.407 143.114 294.407 142.395V140.954L294.517 139.964L294.44 138.974V137.225H295.188V142.296C295.188 143.293 294.943 144.023 294.451 144.485C293.967 144.954 293.249 145.189 292.295 145.189ZM292.152 142.78C291.602 142.78 291.107 142.663 290.667 142.428C290.227 142.186 289.879 141.852 289.622 141.427C289.373 141.002 289.248 140.514 289.248 139.964C289.248 139.414 289.373 138.93 289.622 138.512C289.879 138.087 290.227 137.757 290.667 137.522C291.107 137.287 291.602 137.17 292.152 137.17C292.666 137.17 293.128 137.276 293.538 137.489C293.949 137.702 294.275 138.017 294.517 138.435C294.759 138.853 294.88 139.363 294.88 139.964C294.88 140.565 294.759 141.075 294.517 141.493C294.275 141.911 293.949 142.23 293.538 142.45C293.128 142.67 292.666 142.78 292.152 142.78ZM292.229 142.087C292.655 142.087 293.032 141.999 293.362 141.823C293.692 141.64 293.953 141.39 294.143 141.075C294.334 140.752 294.429 140.382 294.429 139.964C294.429 139.546 294.334 139.179 294.143 138.864C293.953 138.549 293.692 138.303 293.362 138.127C293.032 137.944 292.655 137.852 292.229 137.852C291.811 137.852 291.434 137.944 291.096 138.127C290.766 138.303 290.506 138.549 290.315 138.864C290.132 139.179 290.04 139.546 290.04 139.964C290.04 140.382 290.132 140.752 290.315 141.075C290.506 141.39 290.766 141.64 291.096 141.823C291.434 141.999 291.811 142.087 292.229 142.087ZM299.814 143.055C299.213 143.055 298.685 142.93 298.23 142.681C297.776 142.424 297.42 142.076 297.163 141.636C296.907 141.189 296.778 140.679 296.778 140.107C296.778 139.535 296.899 139.029 297.141 138.589C297.391 138.149 297.728 137.804 298.153 137.555C298.586 137.298 299.07 137.17 299.605 137.17C300.148 137.17 300.628 137.295 301.046 137.544C301.472 137.786 301.805 138.131 302.047 138.578C302.289 139.018 302.41 139.528 302.41 140.107C302.41 140.144 302.407 140.184 302.399 140.228C302.399 140.265 302.399 140.305 302.399 140.349H297.372V139.766H301.981L301.673 139.997C301.673 139.579 301.582 139.209 301.398 138.886C301.222 138.556 300.98 138.299 300.672 138.116C300.364 137.933 300.009 137.841 299.605 137.841C299.209 137.841 298.854 137.933 298.538 138.116C298.223 138.299 297.977 138.556 297.801 138.886C297.625 139.216 297.537 139.594 297.537 140.019V140.14C297.537 140.58 297.633 140.969 297.823 141.306C298.021 141.636 298.293 141.896 298.637 142.087C298.989 142.27 299.389 142.362 299.836 142.362C300.188 142.362 300.515 142.3 300.815 142.175C301.123 142.05 301.387 141.86 301.607 141.603L302.047 142.109C301.791 142.417 301.468 142.652 301.079 142.813C300.698 142.974 300.276 143.055 299.814 143.055ZM307.011 143V136.499C307.011 135.986 307.161 135.571 307.462 135.256C307.763 134.941 308.195 134.783 308.76 134.783C308.98 134.783 309.193 134.812 309.398 134.871C309.603 134.93 309.776 135.021 309.915 135.146L309.651 135.729C309.541 135.634 309.413 135.564 309.266 135.52C309.119 135.469 308.962 135.443 308.793 135.443C308.463 135.443 308.21 135.535 308.034 135.718C307.858 135.901 307.77 136.173 307.77 136.532V137.412L307.792 137.775V143H307.011ZM305.977 137.874V137.225H309.552V137.874H305.977ZM312.864 143.055C312.307 143.055 311.804 142.93 311.357 142.681C310.917 142.424 310.569 142.076 310.312 141.636C310.055 141.189 309.927 140.679 309.927 140.107C309.927 139.528 310.055 139.018 310.312 138.578C310.569 138.138 310.917 137.793 311.357 137.544C311.797 137.295 312.299 137.17 312.864 137.17C313.436 137.17 313.942 137.295 314.382 137.544C314.829 137.793 315.178 138.138 315.427 138.578C315.684 139.018 315.812 139.528 315.812 140.107C315.812 140.679 315.684 141.189 315.427 141.636C315.178 142.076 314.829 142.424 314.382 142.681C313.935 142.93 313.429 143.055 312.864 143.055ZM312.864 142.362C313.282 142.362 313.652 142.27 313.975 142.087C314.298 141.896 314.551 141.632 314.734 141.295C314.925 140.95 315.02 140.554 315.02 140.107C315.02 139.652 314.925 139.256 314.734 138.919C314.551 138.582 314.298 138.321 313.975 138.138C313.652 137.947 313.286 137.852 312.875 137.852C312.464 137.852 312.098 137.947 311.775 138.138C311.452 138.321 311.196 138.582 311.005 138.919C310.814 139.256 310.719 139.652 310.719 140.107C310.719 140.554 310.814 140.95 311.005 141.295C311.196 141.632 311.452 141.896 311.775 142.087C312.098 142.27 312.461 142.362 312.864 142.362ZM317.406 143V134.838H318.187V143H317.406ZM322.659 143.055C322.109 143.055 321.614 142.93 321.174 142.681C320.742 142.432 320.401 142.087 320.151 141.647C319.902 141.2 319.777 140.686 319.777 140.107C319.777 139.52 319.902 139.007 320.151 138.567C320.401 138.127 320.742 137.786 321.174 137.544C321.614 137.295 322.109 137.17 322.659 137.17C323.165 137.17 323.616 137.284 324.012 137.511C324.416 137.738 324.735 138.072 324.969 138.512C325.211 138.945 325.332 139.476 325.332 140.107C325.332 140.73 325.215 141.262 324.98 141.702C324.746 142.142 324.427 142.479 324.023 142.714C323.627 142.941 323.173 143.055 322.659 143.055ZM322.714 142.362C323.125 142.362 323.492 142.27 323.814 142.087C324.144 141.896 324.401 141.632 324.584 141.295C324.775 140.95 324.87 140.554 324.87 140.107C324.87 139.652 324.775 139.256 324.584 138.919C324.401 138.582 324.144 138.321 323.814 138.138C323.492 137.947 323.125 137.852 322.714 137.852C322.311 137.852 321.948 137.947 321.625 138.138C321.303 138.321 321.046 138.582 320.855 138.919C320.665 139.256 320.569 139.652 320.569 140.107C320.569 140.554 320.665 140.95 320.855 141.295C321.046 141.632 321.303 141.896 321.625 142.087C321.948 142.27 322.311 142.362 322.714 142.362ZM324.892 143V141.262L324.969 140.096L324.859 138.93V134.838H325.64V143H324.892ZM330.269 143.055C329.667 143.055 329.139 142.93 328.685 142.681C328.23 142.424 327.874 142.076 327.618 141.636C327.361 141.189 327.233 140.679 327.233 140.107C327.233 139.535 327.354 139.029 327.596 138.589C327.845 138.149 328.182 137.804 328.608 137.555C329.04 137.298 329.524 137.17 330.06 137.17C330.602 137.17 331.083 137.295 331.501 137.544C331.926 137.786 332.26 138.131 332.502 138.578C332.744 139.018 332.865 139.528 332.865 140.107C332.865 140.144 332.861 140.184 332.854 140.228C332.854 140.265 332.854 140.305 332.854 140.349H327.827V139.766H332.436L332.128 139.997C332.128 139.579 332.036 139.209 331.853 138.886C331.677 138.556 331.435 138.299 331.127 138.116C330.819 137.933 330.463 137.841 330.06 137.841C329.664 137.841 329.308 137.933 328.993 138.116C328.677 138.299 328.432 138.556 328.256 138.886C328.08 139.216 327.992 139.594 327.992 140.019V140.14C327.992 140.58 328.087 140.969 328.278 141.306C328.476 141.636 328.747 141.896 329.092 142.087C329.444 142.27 329.843 142.362 330.291 142.362C330.643 142.362 330.969 142.3 331.27 142.175C331.578 142.05 331.842 141.86 332.062 141.603L332.502 142.109C332.245 142.417 331.922 142.652 331.534 142.813C331.152 142.974 330.731 143.055 330.269 143.055ZM334.454 143V137.225H335.202V138.798L335.125 138.523C335.287 138.083 335.558 137.749 335.939 137.522C336.321 137.287 336.794 137.17 337.358 137.17V137.929C337.329 137.929 337.3 137.929 337.27 137.929C337.241 137.922 337.212 137.918 337.182 137.918C336.574 137.918 336.097 138.105 335.752 138.479C335.408 138.846 335.235 139.37 335.235 140.052V143H334.454Z" fill="#474747"/>
<path d="M347.613 143.088C347.026 143.088 346.483 142.993 345.985 142.802C345.493 142.604 345.064 142.329 344.698 141.977C344.338 141.618 344.056 141.2 343.851 140.723C343.645 140.246 343.543 139.722 343.543 139.15C343.543 138.578 343.645 138.054 343.851 137.577C344.056 137.1 344.342 136.686 344.709 136.334C345.075 135.975 345.504 135.7 345.996 135.509C346.494 135.311 347.037 135.212 347.624 135.212C348.218 135.212 348.764 135.315 349.263 135.52C349.769 135.718 350.198 136.015 350.55 136.411L349.835 137.104C349.541 136.796 349.211 136.569 348.845 136.422C348.478 136.268 348.086 136.191 347.668 136.191C347.235 136.191 346.832 136.264 346.458 136.411C346.091 136.558 345.772 136.763 345.501 137.027C345.229 137.291 345.017 137.606 344.863 137.973C344.716 138.332 344.643 138.725 344.643 139.15C344.643 139.575 344.716 139.971 344.863 140.338C345.017 140.697 345.229 141.009 345.501 141.273C345.772 141.537 346.091 141.742 346.458 141.889C346.832 142.036 347.235 142.109 347.668 142.109C348.086 142.109 348.478 142.036 348.845 141.889C349.211 141.735 349.541 141.5 349.835 141.185L350.55 141.878C350.198 142.274 349.769 142.575 349.263 142.78C348.764 142.985 348.214 143.088 347.613 143.088ZM353.967 143.066C353.38 143.066 352.926 142.908 352.603 142.593C352.28 142.278 352.119 141.827 352.119 141.24V135.894H353.175V141.196C353.175 141.511 353.252 141.753 353.406 141.922C353.567 142.091 353.795 142.175 354.088 142.175C354.418 142.175 354.693 142.083 354.913 141.9L355.243 142.659C355.082 142.798 354.887 142.901 354.66 142.967C354.44 143.033 354.209 143.066 353.967 143.066ZM351.129 138.039V137.17H354.847V138.039H351.129ZM356.52 143V137.17H357.532V138.754L357.433 138.358C357.594 137.955 357.865 137.647 358.247 137.434C358.628 137.221 359.097 137.115 359.655 137.115V138.138C359.611 138.131 359.567 138.127 359.523 138.127C359.486 138.127 359.449 138.127 359.413 138.127C358.848 138.127 358.401 138.296 358.071 138.633C357.741 138.97 357.576 139.458 357.576 140.096V143H356.52ZM360.956 143V134.838H362.012V143H360.956ZM368.72 141.559V136.741H369.644V141.559H368.72ZM366.718 139.59V138.721H371.646V139.59H366.718ZM379.969 143.088C379.382 143.088 378.836 142.989 378.33 142.791C377.831 142.593 377.399 142.318 377.032 141.966C376.665 141.607 376.379 141.189 376.174 140.712C375.969 140.235 375.866 139.715 375.866 139.15C375.866 138.585 375.969 138.065 376.174 137.588C376.379 137.111 376.665 136.697 377.032 136.345C377.399 135.986 377.831 135.707 378.33 135.509C378.829 135.311 379.375 135.212 379.969 135.212C380.556 135.212 381.095 135.311 381.586 135.509C382.085 135.7 382.517 135.975 382.884 136.334C383.258 136.686 383.544 137.1 383.742 137.577C383.947 138.054 384.05 138.578 384.05 139.15C384.05 139.722 383.947 140.246 383.742 140.723C383.544 141.2 383.258 141.618 382.884 141.977C382.517 142.329 382.085 142.604 381.586 142.802C381.095 142.993 380.556 143.088 379.969 143.088ZM379.969 142.109C380.394 142.109 380.787 142.036 381.146 141.889C381.513 141.742 381.828 141.537 382.092 141.273C382.363 141.002 382.572 140.686 382.719 140.327C382.873 139.968 382.95 139.575 382.95 139.15C382.95 138.725 382.873 138.332 382.719 137.973C382.572 137.614 382.363 137.302 382.092 137.038C381.828 136.767 381.513 136.558 381.146 136.411C380.787 136.264 380.394 136.191 379.969 136.191C379.536 136.191 379.137 136.264 378.77 136.411C378.411 136.558 378.095 136.767 377.824 137.038C377.553 137.302 377.34 137.614 377.186 137.973C377.039 138.332 376.966 138.725 376.966 139.15C376.966 139.575 377.039 139.968 377.186 140.327C377.34 140.686 377.553 141.002 377.824 141.273C378.095 141.537 378.411 141.742 378.77 141.889C379.137 142.036 379.536 142.109 379.969 142.109Z" fill="#3C78D8"/>
<path d="M238.62 164.066C238.041 164.066 237.502 163.971 237.003 163.78C236.512 163.582 236.083 163.307 235.716 162.955C235.357 162.596 235.074 162.181 234.869 161.712C234.671 161.235 234.572 160.715 234.572 160.15C234.572 159.585 234.671 159.068 234.869 158.599C235.074 158.122 235.357 157.708 235.716 157.356C236.083 156.997 236.512 156.722 237.003 156.531C237.494 156.333 238.033 156.234 238.62 156.234C239.199 156.234 239.735 156.333 240.226 156.531C240.717 156.722 241.143 156.993 241.502 157.345C241.869 157.697 242.151 158.111 242.349 158.588C242.554 159.065 242.657 159.585 242.657 160.15C242.657 160.715 242.554 161.235 242.349 161.712C242.151 162.189 241.869 162.603 241.502 162.955C241.143 163.307 240.717 163.582 240.226 163.78C239.735 163.971 239.199 164.066 238.62 164.066ZM238.62 163.34C239.082 163.34 239.507 163.263 239.896 163.109C240.292 162.948 240.633 162.724 240.919 162.438C241.212 162.145 241.44 161.807 241.601 161.426C241.762 161.037 241.843 160.612 241.843 160.15C241.843 159.688 241.762 159.266 241.601 158.885C241.44 158.496 241.212 158.159 240.919 157.873C240.633 157.58 240.292 157.356 239.896 157.202C239.507 157.041 239.082 156.96 238.62 156.96C238.158 156.96 237.729 157.041 237.333 157.202C236.937 157.356 236.592 157.58 236.299 157.873C236.013 158.159 235.786 158.496 235.617 158.885C235.456 159.266 235.375 159.688 235.375 160.15C235.375 160.605 235.456 161.026 235.617 161.415C235.786 161.804 236.013 162.145 236.299 162.438C236.592 162.724 236.937 162.948 237.333 163.109C237.729 163.263 238.158 163.34 238.62 163.34ZM247.298 164.055C246.799 164.055 246.348 163.941 245.945 163.714C245.541 163.479 245.219 163.146 244.977 162.713C244.742 162.273 244.625 161.738 244.625 161.107C244.625 160.476 244.742 159.945 244.977 159.512C245.211 159.072 245.53 158.738 245.934 158.511C246.337 158.284 246.792 158.17 247.298 158.17C247.848 158.17 248.339 158.295 248.772 158.544C249.212 158.786 249.556 159.131 249.806 159.578C250.055 160.018 250.18 160.528 250.18 161.107C250.18 161.694 250.055 162.207 249.806 162.647C249.556 163.087 249.212 163.432 248.772 163.681C248.339 163.93 247.848 164.055 247.298 164.055ZM244.317 166.134V158.225H245.065V159.963L244.988 161.118L245.098 162.284V166.134H244.317ZM247.243 163.362C247.653 163.362 248.02 163.27 248.343 163.087C248.665 162.896 248.922 162.632 249.113 162.295C249.303 161.95 249.399 161.554 249.399 161.107C249.399 160.66 249.303 160.267 249.113 159.93C248.922 159.593 248.665 159.329 248.343 159.138C248.02 158.947 247.653 158.852 247.243 158.852C246.832 158.852 246.462 158.947 246.132 159.138C245.809 159.329 245.552 159.593 245.362 159.93C245.178 160.267 245.087 160.66 245.087 161.107C245.087 161.554 245.178 161.95 245.362 162.295C245.552 162.632 245.809 162.896 246.132 163.087C246.462 163.27 246.832 163.362 247.243 163.362ZM254.225 164.055C253.623 164.055 253.095 163.93 252.641 163.681C252.186 163.424 251.83 163.076 251.574 162.636C251.317 162.189 251.189 161.679 251.189 161.107C251.189 160.535 251.31 160.029 251.552 159.589C251.801 159.149 252.138 158.804 252.564 158.555C252.996 158.298 253.48 158.17 254.016 158.17C254.558 158.17 255.039 158.295 255.457 158.544C255.882 158.786 256.216 159.131 256.458 159.578C256.7 160.018 256.821 160.528 256.821 161.107C256.821 161.144 256.817 161.184 256.81 161.228C256.81 161.265 256.81 161.305 256.81 161.349H251.783V160.766H256.392L256.084 160.997C256.084 160.579 255.992 160.209 255.809 159.886C255.633 159.556 255.391 159.299 255.083 159.116C254.775 158.933 254.419 158.841 254.016 158.841C253.62 158.841 253.264 158.933 252.949 159.116C252.633 159.299 252.388 159.556 252.212 159.886C252.036 160.216 251.948 160.594 251.948 161.019V161.14C251.948 161.58 252.043 161.969 252.234 162.306C252.432 162.636 252.703 162.896 253.048 163.087C253.4 163.27 253.799 163.362 254.247 163.362C254.599 163.362 254.925 163.3 255.226 163.175C255.534 163.05 255.798 162.86 256.018 162.603L256.458 163.109C256.201 163.417 255.878 163.652 255.49 163.813C255.108 163.974 254.687 164.055 254.225 164.055ZM261.358 158.17C261.828 158.17 262.238 158.262 262.59 158.445C262.95 158.621 263.228 158.892 263.426 159.259C263.632 159.626 263.734 160.088 263.734 160.645V164H262.953V160.722C262.953 160.113 262.799 159.655 262.491 159.347C262.191 159.032 261.765 158.874 261.215 158.874C260.805 158.874 260.445 158.958 260.137 159.127C259.837 159.288 259.602 159.527 259.433 159.842C259.272 160.15 259.191 160.524 259.191 160.964V164H258.41V158.225H259.158V159.809L259.037 159.512C259.221 159.094 259.514 158.768 259.917 158.533C260.321 158.291 260.801 158.17 261.358 158.17ZM268.723 164V155.838H269.504V164H268.723ZM275.296 164V162.724L275.263 162.515V160.381C275.263 159.89 275.124 159.512 274.845 159.248C274.574 158.984 274.167 158.852 273.624 158.852C273.25 158.852 272.894 158.914 272.557 159.039C272.22 159.164 271.934 159.329 271.699 159.534L271.347 158.951C271.64 158.702 271.992 158.511 272.403 158.379C272.814 158.24 273.246 158.17 273.701 158.17C274.449 158.17 275.025 158.357 275.428 158.731C275.839 159.098 276.044 159.659 276.044 160.414V164H275.296ZM273.305 164.055C272.872 164.055 272.495 163.985 272.172 163.846C271.857 163.699 271.615 163.501 271.446 163.252C271.277 162.995 271.193 162.702 271.193 162.372C271.193 162.071 271.263 161.8 271.402 161.558C271.549 161.309 271.783 161.111 272.106 160.964C272.436 160.81 272.876 160.733 273.426 160.733H275.417V161.316H273.448C272.891 161.316 272.502 161.415 272.282 161.613C272.069 161.811 271.963 162.057 271.963 162.35C271.963 162.68 272.091 162.944 272.348 163.142C272.605 163.34 272.964 163.439 273.426 163.439C273.866 163.439 274.244 163.34 274.559 163.142C274.882 162.937 275.116 162.643 275.263 162.262L275.439 162.801C275.292 163.182 275.036 163.487 274.669 163.714C274.31 163.941 273.855 164.055 273.305 164.055ZM281.146 164.055C280.64 164.055 280.186 163.941 279.782 163.714C279.379 163.479 279.06 163.142 278.825 162.702C278.591 162.262 278.473 161.73 278.473 161.107C278.473 160.476 278.591 159.945 278.825 159.512C279.067 159.072 279.39 158.738 279.793 158.511C280.197 158.284 280.648 158.17 281.146 158.17C281.696 158.17 282.188 158.295 282.62 158.544C283.06 158.786 283.405 159.127 283.654 159.567C283.904 160.007 284.028 160.52 284.028 161.107C284.028 161.686 283.904 162.2 283.654 162.647C283.405 163.087 283.06 163.432 282.62 163.681C282.188 163.93 281.696 164.055 281.146 164.055ZM278.165 164V155.838H278.946V159.93L278.836 161.096L278.913 162.262V164H278.165ZM281.091 163.362C281.502 163.362 281.869 163.27 282.191 163.087C282.514 162.896 282.771 162.632 282.961 162.295C283.152 161.95 283.247 161.554 283.247 161.107C283.247 160.652 283.152 160.256 282.961 159.919C282.771 159.582 282.514 159.321 282.191 159.138C281.869 158.947 281.502 158.852 281.091 158.852C280.681 158.852 280.31 158.947 279.98 159.138C279.658 159.321 279.401 159.582 279.21 159.919C279.027 160.256 278.935 160.652 278.935 161.107C278.935 161.554 279.027 161.95 279.21 162.295C279.401 162.632 279.658 162.896 279.98 163.087C280.31 163.27 280.681 163.362 281.091 163.362ZM288.073 164.055C287.472 164.055 286.944 163.93 286.489 163.681C286.035 163.424 285.679 163.076 285.422 162.636C285.166 162.189 285.037 161.679 285.037 161.107C285.037 160.535 285.158 160.029 285.4 159.589C285.65 159.149 285.987 158.804 286.412 158.555C286.845 158.298 287.329 158.17 287.864 158.17C288.407 158.17 288.887 158.295 289.305 158.544C289.731 158.786 290.064 159.131 290.306 159.578C290.548 160.018 290.669 160.528 290.669 161.107C290.669 161.144 290.666 161.184 290.658 161.228C290.658 161.265 290.658 161.305 290.658 161.349H285.631V160.766H290.24L289.932 160.997C289.932 160.579 289.841 160.209 289.657 159.886C289.481 159.556 289.239 159.299 288.931 159.116C288.623 158.933 288.268 158.841 287.864 158.841C287.468 158.841 287.113 158.933 286.797 159.116C286.482 159.299 286.236 159.556 286.06 159.886C285.884 160.216 285.796 160.594 285.796 161.019V161.14C285.796 161.58 285.892 161.969 286.082 162.306C286.28 162.636 286.552 162.896 286.896 163.087C287.248 163.27 287.648 163.362 288.095 163.362C288.447 163.362 288.774 163.3 289.074 163.175C289.382 163.05 289.646 162.86 289.866 162.603L290.306 163.109C290.05 163.417 289.727 163.652 289.338 163.813C288.957 163.974 288.535 164.055 288.073 164.055ZM292.259 164V155.838H293.04V164H292.259ZM305.308 158.17C305.777 158.17 306.184 158.262 306.529 158.445C306.881 158.621 307.152 158.892 307.343 159.259C307.541 159.626 307.64 160.088 307.64 160.645V164H306.859V160.722C306.859 160.113 306.712 159.655 306.419 159.347C306.133 159.032 305.726 158.874 305.198 158.874C304.802 158.874 304.457 158.958 304.164 159.127C303.878 159.288 303.654 159.527 303.493 159.842C303.339 160.15 303.262 160.524 303.262 160.964V164H302.481V160.722C302.481 160.113 302.334 159.655 302.041 159.347C301.748 159.032 301.337 158.874 300.809 158.874C300.42 158.874 300.079 158.958 299.786 159.127C299.493 159.288 299.265 159.527 299.104 159.842C298.95 160.15 298.873 160.524 298.873 160.964V164H298.092V158.225H298.84V159.787L298.719 159.512C298.895 159.094 299.177 158.768 299.566 158.533C299.962 158.291 300.428 158.17 300.963 158.17C301.528 158.17 302.008 158.313 302.404 158.599C302.8 158.878 303.057 159.299 303.174 159.864L302.866 159.743C303.035 159.274 303.332 158.896 303.757 158.61C304.19 158.317 304.707 158.17 305.308 158.17ZM313.377 164V162.724L313.344 162.515V160.381C313.344 159.89 313.205 159.512 312.926 159.248C312.655 158.984 312.248 158.852 311.705 158.852C311.331 158.852 310.975 158.914 310.638 159.039C310.301 159.164 310.015 159.329 309.78 159.534L309.428 158.951C309.721 158.702 310.073 158.511 310.484 158.379C310.895 158.24 311.327 158.17 311.782 158.17C312.53 158.17 313.106 158.357 313.509 158.731C313.92 159.098 314.125 159.659 314.125 160.414V164H313.377ZM311.386 164.055C310.953 164.055 310.576 163.985 310.253 163.846C309.938 163.699 309.696 163.501 309.527 163.252C309.358 162.995 309.274 162.702 309.274 162.372C309.274 162.071 309.344 161.8 309.483 161.558C309.63 161.309 309.864 161.111 310.187 160.964C310.517 160.81 310.957 160.733 311.507 160.733H313.498V161.316H311.529C310.972 161.316 310.583 161.415 310.363 161.613C310.15 161.811 310.044 162.057 310.044 162.35C310.044 162.68 310.172 162.944 310.429 163.142C310.686 163.34 311.045 163.439 311.507 163.439C311.947 163.439 312.325 163.34 312.64 163.142C312.963 162.937 313.197 162.643 313.344 162.262L313.52 162.801C313.373 163.182 313.117 163.487 312.75 163.714C312.391 163.941 311.936 164.055 311.386 164.055ZM319.227 164.055C318.729 164.055 318.278 163.941 317.874 163.714C317.471 163.479 317.148 163.146 316.906 162.713C316.672 162.273 316.554 161.738 316.554 161.107C316.554 160.476 316.672 159.945 316.906 159.512C317.141 159.072 317.46 158.738 317.863 158.511C318.267 158.284 318.721 158.17 319.227 158.17C319.777 158.17 320.269 158.295 320.701 158.544C321.141 158.786 321.486 159.131 321.735 159.578C321.985 160.018 322.109 160.528 322.109 161.107C322.109 161.694 321.985 162.207 321.735 162.647C321.486 163.087 321.141 163.432 320.701 163.681C320.269 163.93 319.777 164.055 319.227 164.055ZM316.246 166.134V158.225H316.994V159.963L316.917 161.118L317.027 162.284V166.134H316.246ZM319.172 163.362C319.583 163.362 319.95 163.27 320.272 163.087C320.595 162.896 320.852 162.632 321.042 162.295C321.233 161.95 321.328 161.554 321.328 161.107C321.328 160.66 321.233 160.267 321.042 159.93C320.852 159.593 320.595 159.329 320.272 159.138C319.95 158.947 319.583 158.852 319.172 158.852C318.762 158.852 318.391 158.947 318.061 159.138C317.739 159.329 317.482 159.593 317.291 159.93C317.108 160.267 317.016 160.66 317.016 161.107C317.016 161.554 317.108 161.95 317.291 162.295C317.482 162.632 317.739 162.896 318.061 163.087C318.391 163.27 318.762 163.362 319.172 163.362Z" fill="#474747"/>
<path d="M332.445 164.088C331.858 164.088 331.315 163.993 330.817 163.802C330.325 163.604 329.896 163.329 329.53 162.977C329.17 162.618 328.888 162.2 328.683 161.723C328.477 161.246 328.375 160.722 328.375 160.15C328.375 159.578 328.477 159.054 328.683 158.577C328.888 158.1 329.174 157.686 329.541 157.334C329.907 156.975 330.336 156.7 330.828 156.509C331.326 156.311 331.869 156.212 332.456 156.212C333.05 156.212 333.596 156.315 334.095 156.52C334.601 156.718 335.03 157.015 335.382 157.411L334.667 158.104C334.373 157.796 334.043 157.569 333.677 157.422C333.31 157.268 332.918 157.191 332.5 157.191C332.067 157.191 331.664 157.264 331.29 157.411C330.923 157.558 330.604 157.763 330.333 158.027C330.061 158.291 329.849 158.606 329.695 158.973C329.548 159.332 329.475 159.725 329.475 160.15C329.475 160.575 329.548 160.971 329.695 161.338C329.849 161.697 330.061 162.009 330.333 162.273C330.604 162.537 330.923 162.742 331.29 162.889C331.664 163.036 332.067 163.109 332.5 163.109C332.918 163.109 333.31 163.036 333.677 162.889C334.043 162.735 334.373 162.5 334.667 162.185L335.382 162.878C335.03 163.274 334.601 163.575 334.095 163.78C333.596 163.985 333.046 164.088 332.445 164.088ZM338.799 164.066C338.212 164.066 337.758 163.908 337.435 163.593C337.112 163.278 336.951 162.827 336.951 162.24V156.894H338.007V162.196C338.007 162.511 338.084 162.753 338.238 162.922C338.399 163.091 338.627 163.175 338.92 163.175C339.25 163.175 339.525 163.083 339.745 162.9L340.075 163.659C339.914 163.798 339.719 163.901 339.492 163.967C339.272 164.033 339.041 164.066 338.799 164.066ZM335.961 159.039V158.17H339.679V159.039H335.961ZM341.352 164V158.17H342.364V159.754L342.265 159.358C342.426 158.955 342.697 158.647 343.079 158.434C343.46 158.221 343.929 158.115 344.487 158.115V159.138C344.443 159.131 344.399 159.127 344.355 159.127C344.318 159.127 344.281 159.127 344.245 159.127C343.68 159.127 343.233 159.296 342.903 159.633C342.573 159.97 342.408 160.458 342.408 161.096V164H341.352ZM345.788 164V155.838H346.844V164H345.788ZM353.552 162.559V157.741H354.476V162.559H353.552ZM351.55 160.59V159.721H356.478V160.59H351.55ZM361.325 164V156.3H362.425V163.043H366.594V164H361.325Z" fill="#3C78D8"/>
<path d="M235.254 185V177.3H236.068V185H235.254ZM245.624 179.17C246.094 179.17 246.501 179.262 246.845 179.445C247.197 179.621 247.469 179.892 247.659 180.259C247.857 180.626 247.956 181.088 247.956 181.645V185H247.175V181.722C247.175 181.113 247.029 180.655 246.735 180.347C246.449 180.032 246.042 179.874 245.514 179.874C245.118 179.874 244.774 179.958 244.48 180.127C244.194 180.288 243.971 180.527 243.809 180.842C243.655 181.15 243.578 181.524 243.578 181.964V185H242.797V181.722C242.797 181.113 242.651 180.655 242.357 180.347C242.064 180.032 241.653 179.874 241.125 179.874C240.737 179.874 240.396 179.958 240.102 180.127C239.809 180.288 239.582 180.527 239.42 180.842C239.266 181.15 239.189 181.524 239.189 181.964V185H238.408V179.225H239.156V180.787L239.035 180.512C239.211 180.094 239.494 179.768 239.882 179.533C240.278 179.291 240.744 179.17 241.279 179.17C241.844 179.17 242.324 179.313 242.72 179.599C243.116 179.878 243.373 180.299 243.49 180.864L243.182 180.743C243.351 180.274 243.648 179.896 244.073 179.61C244.506 179.317 245.023 179.17 245.624 179.17ZM253.055 185.055C252.557 185.055 252.106 184.941 251.702 184.714C251.299 184.479 250.976 184.146 250.734 183.713C250.5 183.273 250.382 182.738 250.382 182.107C250.382 181.476 250.5 180.945 250.734 180.512C250.969 180.072 251.288 179.738 251.691 179.511C252.095 179.284 252.549 179.17 253.055 179.17C253.605 179.17 254.097 179.295 254.529 179.544C254.969 179.786 255.314 180.131 255.563 180.578C255.813 181.018 255.937 181.528 255.937 182.107C255.937 182.694 255.813 183.207 255.563 183.647C255.314 184.087 254.969 184.432 254.529 184.681C254.097 184.93 253.605 185.055 253.055 185.055ZM250.074 187.134V179.225H250.822V180.963L250.745 182.118L250.855 183.284V187.134H250.074ZM253 184.362C253.411 184.362 253.778 184.27 254.1 184.087C254.423 183.896 254.68 183.632 254.87 183.295C255.061 182.95 255.156 182.554 255.156 182.107C255.156 181.66 255.061 181.267 254.87 180.93C254.68 180.593 254.423 180.329 254.1 180.138C253.778 179.947 253.411 179.852 253 179.852C252.59 179.852 252.219 179.947 251.889 180.138C251.567 180.329 251.31 180.593 251.119 180.93C250.936 181.267 250.844 181.66 250.844 182.107C250.844 182.554 250.936 182.95 251.119 183.295C251.31 183.632 251.567 183.896 251.889 184.087C252.219 184.27 252.59 184.362 253 184.362ZM259.883 185.055C259.326 185.055 258.824 184.93 258.376 184.681C257.936 184.424 257.588 184.076 257.331 183.636C257.075 183.189 256.946 182.679 256.946 182.107C256.946 181.528 257.075 181.018 257.331 180.578C257.588 180.138 257.936 179.793 258.376 179.544C258.816 179.295 259.319 179.17 259.883 179.17C260.455 179.17 260.961 179.295 261.401 179.544C261.849 179.793 262.197 180.138 262.446 180.578C262.703 181.018 262.831 181.528 262.831 182.107C262.831 182.679 262.703 183.189 262.446 183.636C262.197 184.076 261.849 184.424 261.401 184.681C260.954 184.93 260.448 185.055 259.883 185.055ZM259.883 184.362C260.301 184.362 260.672 184.27 260.994 184.087C261.317 183.896 261.57 183.632 261.753 183.295C261.944 182.95 262.039 182.554 262.039 182.107C262.039 181.652 261.944 181.256 261.753 180.919C261.57 180.582 261.317 180.321 260.994 180.138C260.672 179.947 260.305 179.852 259.894 179.852C259.484 179.852 259.117 179.947 258.794 180.138C258.472 180.321 258.215 180.582 258.024 180.919C257.834 181.256 257.738 181.652 257.738 182.107C257.738 182.554 257.834 182.95 258.024 183.295C258.215 183.632 258.472 183.896 258.794 184.087C259.117 184.27 259.48 184.362 259.883 184.362ZM264.426 185V179.225H265.174V180.798L265.097 180.523C265.258 180.083 265.53 179.749 265.911 179.522C266.292 179.287 266.765 179.17 267.33 179.17V179.929C267.301 179.929 267.271 179.929 267.242 179.929C267.213 179.922 267.183 179.918 267.154 179.918C266.545 179.918 266.069 180.105 265.724 180.479C265.379 180.846 265.207 181.37 265.207 182.052V185H264.426ZM270.828 185.055C270.285 185.055 269.867 184.908 269.574 184.615C269.281 184.322 269.134 183.907 269.134 183.372V177.949H269.915V183.328C269.915 183.665 269.999 183.926 270.168 184.109C270.344 184.292 270.593 184.384 270.916 184.384C271.261 184.384 271.547 184.285 271.774 184.087L272.049 184.648C271.895 184.787 271.708 184.89 271.488 184.956C271.275 185.022 271.055 185.055 270.828 185.055ZM268.1 179.874V179.225H271.675V179.874H268.1ZM279.969 185V183.724L279.936 183.515V181.381C279.936 180.89 279.796 180.512 279.518 180.248C279.246 179.984 278.839 179.852 278.297 179.852C277.923 179.852 277.567 179.914 277.23 180.039C276.892 180.164 276.606 180.329 276.372 180.534L276.02 179.951C276.313 179.702 276.665 179.511 277.076 179.379C277.486 179.24 277.919 179.17 278.374 179.17C279.122 179.17 279.697 179.357 280.101 179.731C280.511 180.098 280.717 180.659 280.717 181.414V185H279.969ZM277.978 185.055C277.545 185.055 277.167 184.985 276.845 184.846C276.529 184.699 276.287 184.501 276.119 184.252C275.95 183.995 275.866 183.702 275.866 183.372C275.866 183.071 275.935 182.8 276.075 182.558C276.221 182.309 276.456 182.111 276.779 181.964C277.109 181.81 277.549 181.733 278.099 181.733H280.09V182.316H278.121C277.563 182.316 277.175 182.415 276.955 182.613C276.742 182.811 276.636 183.057 276.636 183.35C276.636 183.68 276.764 183.944 277.021 184.142C277.277 184.34 277.637 184.439 278.099 184.439C278.539 184.439 278.916 184.34 279.232 184.142C279.554 183.937 279.789 183.643 279.936 183.262L280.112 183.801C279.965 184.182 279.708 184.487 279.342 184.714C278.982 184.941 278.528 185.055 277.978 185.055ZM285.786 179.17C286.255 179.17 286.666 179.262 287.018 179.445C287.377 179.621 287.656 179.892 287.854 180.259C288.059 180.626 288.162 181.088 288.162 181.645V185H287.381V181.722C287.381 181.113 287.227 180.655 286.919 180.347C286.618 180.032 286.193 179.874 285.643 179.874C285.232 179.874 284.873 179.958 284.565 180.127C284.264 180.288 284.03 180.527 283.861 180.842C283.7 181.15 283.619 181.524 283.619 181.964V185H282.838V179.225H283.586V180.809L283.465 180.512C283.648 180.094 283.942 179.768 284.345 179.533C284.748 179.291 285.229 179.17 285.786 179.17ZM293.22 179.17C293.689 179.17 294.1 179.262 294.452 179.445C294.811 179.621 295.09 179.892 295.288 180.259C295.493 180.626 295.596 181.088 295.596 181.645V185H294.815V181.722C294.815 181.113 294.661 180.655 294.353 180.347C294.052 180.032 293.627 179.874 293.077 179.874C292.666 179.874 292.307 179.958 291.999 180.127C291.698 180.288 291.463 180.527 291.295 180.842C291.133 181.15 291.053 181.524 291.053 181.964V185H290.272V179.225H291.02V180.809L290.899 180.512C291.082 180.094 291.375 179.768 291.779 179.533C292.182 179.291 292.662 179.17 293.22 179.17ZM300.059 185.055C299.502 185.055 299 184.93 298.552 184.681C298.112 184.424 297.764 184.076 297.507 183.636C297.251 183.189 297.122 182.679 297.122 182.107C297.122 181.528 297.251 181.018 297.507 180.578C297.764 180.138 298.112 179.793 298.552 179.544C298.992 179.295 299.495 179.17 300.059 179.17C300.631 179.17 301.137 179.295 301.577 179.544C302.025 179.793 302.373 180.138 302.622 180.578C302.879 181.018 303.007 181.528 303.007 182.107C303.007 182.679 302.879 183.189 302.622 183.636C302.373 184.076 302.025 184.424 301.577 184.681C301.13 184.93 300.624 185.055 300.059 185.055ZM300.059 184.362C300.477 184.362 300.848 184.27 301.17 184.087C301.493 183.896 301.746 183.632 301.929 183.295C302.12 182.95 302.215 182.554 302.215 182.107C302.215 181.652 302.12 181.256 301.929 180.919C301.746 180.582 301.493 180.321 301.17 180.138C300.848 179.947 300.481 179.852 300.07 179.852C299.66 179.852 299.293 179.947 298.97 180.138C298.648 180.321 298.391 180.582 298.2 180.919C298.01 181.256 297.914 181.652 297.914 182.107C297.914 182.554 298.01 182.95 298.2 183.295C298.391 183.632 298.648 183.896 298.97 184.087C299.293 184.27 299.656 184.362 300.059 184.362ZM306.428 185.055C305.885 185.055 305.467 184.908 305.174 184.615C304.88 184.322 304.734 183.907 304.734 183.372V177.949H305.515V183.328C305.515 183.665 305.599 183.926 305.768 184.109C305.944 184.292 306.193 184.384 306.516 184.384C306.86 184.384 307.146 184.285 307.374 184.087L307.649 184.648C307.495 184.787 307.308 184.89 307.088 184.956C306.875 185.022 306.655 185.055 306.428 185.055ZM303.7 179.874V179.225H307.275V179.874H303.7ZM312.689 185V183.724L312.656 183.515V181.381C312.656 180.89 312.517 180.512 312.238 180.248C311.967 179.984 311.56 179.852 311.017 179.852C310.643 179.852 310.288 179.914 309.95 180.039C309.613 180.164 309.327 180.329 309.092 180.534L308.74 179.951C309.034 179.702 309.386 179.511 309.796 179.379C310.207 179.24 310.64 179.17 311.094 179.17C311.842 179.17 312.418 179.357 312.821 179.731C313.232 180.098 313.437 180.659 313.437 181.414V185H312.689ZM310.698 185.055C310.266 185.055 309.888 184.985 309.565 184.846C309.25 184.699 309.008 184.501 308.839 184.252C308.671 183.995 308.586 183.702 308.586 183.372C308.586 183.071 308.656 182.8 308.795 182.558C308.942 182.309 309.177 182.111 309.499 181.964C309.829 181.81 310.269 181.733 310.819 181.733H312.81V182.316H310.841C310.284 182.316 309.895 182.415 309.675 182.613C309.463 182.811 309.356 183.057 309.356 183.35C309.356 183.68 309.485 183.944 309.741 184.142C309.998 184.34 310.357 184.439 310.819 184.439C311.259 184.439 311.637 184.34 311.952 184.142C312.275 183.937 312.51 183.643 312.656 183.262L312.832 183.801C312.686 184.182 312.429 184.487 312.062 184.714C311.703 184.941 311.248 185.055 310.698 185.055ZM317.385 185.055C316.842 185.055 316.424 184.908 316.131 184.615C315.837 184.322 315.691 183.907 315.691 183.372V177.949H316.472V183.328C316.472 183.665 316.556 183.926 316.725 184.109C316.901 184.292 317.15 184.384 317.473 184.384C317.817 184.384 318.103 184.285 318.331 184.087L318.606 184.648C318.452 184.787 318.265 184.89 318.045 184.956C317.832 185.022 317.612 185.055 317.385 185.055ZM314.657 179.874V179.225H318.232V179.874H314.657ZM320.027 185V179.225H320.808V185H320.027ZM320.423 177.949C320.262 177.949 320.126 177.894 320.016 177.784C319.906 177.674 319.851 177.542 319.851 177.388C319.851 177.234 319.906 177.106 320.016 177.003C320.126 176.893 320.262 176.838 320.423 176.838C320.585 176.838 320.72 176.889 320.83 176.992C320.94 177.095 320.995 177.223 320.995 177.377C320.995 177.538 320.94 177.674 320.83 177.784C320.728 177.894 320.592 177.949 320.423 177.949ZM325.336 185.055C324.778 185.055 324.276 184.93 323.829 184.681C323.389 184.424 323.04 184.076 322.784 183.636C322.527 183.189 322.399 182.679 322.399 182.107C322.399 181.528 322.527 181.018 322.784 180.578C323.04 180.138 323.389 179.793 323.829 179.544C324.269 179.295 324.771 179.17 325.336 179.17C325.908 179.17 326.414 179.295 326.854 179.544C327.301 179.793 327.649 180.138 327.899 180.578C328.155 181.018 328.284 181.528 328.284 182.107C328.284 182.679 328.155 183.189 327.899 183.636C327.649 184.076 327.301 184.424 326.854 184.681C326.406 184.93 325.9 185.055 325.336 185.055ZM325.336 184.362C325.754 184.362 326.124 184.27 326.447 184.087C326.769 183.896 327.022 183.632 327.206 183.295C327.396 182.95 327.492 182.554 327.492 182.107C327.492 181.652 327.396 181.256 327.206 180.919C327.022 180.582 326.769 180.321 326.447 180.138C326.124 179.947 325.757 179.852 325.347 179.852C324.936 179.852 324.569 179.947 324.247 180.138C323.924 180.321 323.667 180.582 323.477 180.919C323.286 181.256 323.191 181.652 323.191 182.107C323.191 182.554 323.286 182.95 323.477 183.295C323.667 183.632 323.924 183.896 324.247 184.087C324.569 184.27 324.932 184.362 325.336 184.362ZM332.826 179.17C333.295 179.17 333.706 179.262 334.058 179.445C334.417 179.621 334.696 179.892 334.894 180.259C335.099 180.626 335.202 181.088 335.202 181.645V185H334.421V181.722C334.421 181.113 334.267 180.655 333.959 180.347C333.658 180.032 333.233 179.874 332.683 179.874C332.272 179.874 331.913 179.958 331.605 180.127C331.304 180.288 331.07 180.527 330.901 180.842C330.74 181.15 330.659 181.524 330.659 181.964V185H329.878V179.225H330.626V180.809L330.505 180.512C330.688 180.094 330.982 179.768 331.385 179.533C331.788 179.291 332.269 179.17 332.826 179.17ZM338.863 185.055C338.386 185.055 337.935 184.989 337.51 184.857C337.084 184.718 336.751 184.545 336.509 184.34L336.861 183.724C337.095 183.9 337.396 184.054 337.763 184.186C338.129 184.311 338.514 184.373 338.918 184.373C339.468 184.373 339.864 184.289 340.106 184.12C340.348 183.944 340.469 183.713 340.469 183.427C340.469 183.214 340.399 183.049 340.26 182.932C340.128 182.807 339.952 182.716 339.732 182.657C339.512 182.591 339.266 182.536 338.995 182.492C338.723 182.448 338.452 182.397 338.181 182.338C337.917 182.279 337.675 182.195 337.455 182.085C337.235 181.968 337.055 181.81 336.916 181.612C336.784 181.414 336.718 181.15 336.718 180.82C336.718 180.505 336.806 180.222 336.982 179.973C337.158 179.724 337.414 179.529 337.752 179.39C338.096 179.243 338.514 179.17 339.006 179.17C339.38 179.17 339.754 179.221 340.128 179.324C340.502 179.419 340.81 179.548 341.052 179.709L340.711 180.336C340.454 180.16 340.179 180.035 339.886 179.962C339.592 179.881 339.299 179.841 339.006 179.841C338.485 179.841 338.1 179.933 337.851 180.116C337.609 180.292 337.488 180.519 337.488 180.798C337.488 181.018 337.554 181.19 337.686 181.315C337.825 181.44 338.005 181.539 338.225 181.612C338.452 181.678 338.698 181.733 338.962 181.777C339.233 181.821 339.501 181.876 339.765 181.942C340.036 182.001 340.282 182.085 340.502 182.195C340.729 182.298 340.909 182.448 341.041 182.646C341.18 182.837 341.25 183.09 341.25 183.405C341.25 183.742 341.154 184.036 340.964 184.285C340.78 184.527 340.509 184.718 340.15 184.857C339.798 184.989 339.369 185.055 338.863 185.055Z" fill="#474747"/>
<path d="M351.426 185.088C350.839 185.088 350.297 184.993 349.798 184.802C349.307 184.604 348.878 184.329 348.511 183.977C348.152 183.618 347.869 183.2 347.664 182.723C347.459 182.246 347.356 181.722 347.356 181.15C347.356 180.578 347.459 180.054 347.664 179.577C347.869 179.1 348.155 178.686 348.522 178.334C348.889 177.975 349.318 177.7 349.809 177.509C350.308 177.311 350.85 177.212 351.437 177.212C352.031 177.212 352.577 177.315 353.076 177.52C353.582 177.718 354.011 178.015 354.363 178.411L353.648 179.104C353.355 178.796 353.025 178.569 352.658 178.422C352.291 178.268 351.899 178.191 351.481 178.191C351.048 178.191 350.645 178.264 350.271 178.411C349.904 178.558 349.585 178.763 349.314 179.027C349.043 179.291 348.83 179.606 348.676 179.973C348.529 180.332 348.456 180.725 348.456 181.15C348.456 181.575 348.529 181.971 348.676 182.338C348.83 182.697 349.043 183.009 349.314 183.273C349.585 183.537 349.904 183.742 350.271 183.889C350.645 184.036 351.048 184.109 351.481 184.109C351.899 184.109 352.291 184.036 352.658 183.889C353.025 183.735 353.355 183.5 353.648 183.185L354.363 183.878C354.011 184.274 353.582 184.575 353.076 184.78C352.577 184.985 352.027 185.088 351.426 185.088ZM357.78 185.066C357.194 185.066 356.739 184.908 356.416 184.593C356.094 184.278 355.932 183.827 355.932 183.24V177.894H356.988V183.196C356.988 183.511 357.065 183.753 357.219 183.922C357.381 184.091 357.608 184.175 357.901 184.175C358.231 184.175 358.506 184.083 358.726 183.9L359.056 184.659C358.895 184.798 358.701 184.901 358.473 184.967C358.253 185.033 358.022 185.066 357.78 185.066ZM354.942 180.039V179.17H358.66V180.039H354.942ZM360.333 185V179.17H361.345V180.754L361.246 180.358C361.407 179.955 361.679 179.647 362.06 179.434C362.441 179.221 362.911 179.115 363.468 179.115V180.138C363.424 180.131 363.38 180.127 363.336 180.127C363.299 180.127 363.263 180.127 363.226 180.127C362.661 180.127 362.214 180.296 361.884 180.633C361.554 180.97 361.389 181.458 361.389 182.096V185H360.333ZM364.77 185V176.838H365.826V185H364.77ZM372.534 183.559V178.741H373.458V183.559H372.534ZM370.532 181.59V180.721H375.46V181.59H370.532ZM380.306 185V177.3H381.406V185H380.306Z" fill="#3C78D8"/>
<line x1="222.75" y1="189.006" x2="222.75" y2="110" stroke="#3A3A3A" stroke-width="0.5"/>
</svg>
