<svg width="600" height="300" viewBox="0 0 600 300" fill="none" xmlns="http://www.w3.org/2000/svg">
<rect width="600" height="300" fill="#212121"/>
<path fill-rule="evenodd" clip-rule="evenodd" d="M131.339 185L131 184.862L163.173 106.048L163.147 106H182.891V106.111L201.936 152.536L201.82 152.583L201.824 152.59L146.695 185H131.339ZM210 174.418C210 179.859 205.595 184.27 200.161 184.27C194.727 184.27 190.322 179.859 190.322 174.418C190.322 168.977 194.727 164.566 200.161 164.566C205.595 164.566 210 168.977 210 174.418ZM172.69 124.116L156.895 162.172L182.289 147.244L172.69 124.116Z" fill="#323232"/>
<path d="M235.155 118V110.3H238.4C239.221 110.3 239.944 110.461 240.567 110.784C241.198 111.107 241.685 111.558 242.03 112.137C242.382 112.716 242.558 113.387 242.558 114.15C242.558 114.913 242.382 115.584 242.03 116.163C241.685 116.742 241.198 117.193 240.567 117.516C239.944 117.839 239.221 118 238.4 118H235.155ZM236.255 117.043H238.334C238.972 117.043 239.522 116.922 239.984 116.68C240.453 116.438 240.816 116.101 241.073 115.668C241.33 115.228 241.458 114.722 241.458 114.15C241.458 113.571 241.33 113.065 241.073 112.632C240.816 112.199 240.453 111.862 239.984 111.62C239.522 111.378 238.972 111.257 238.334 111.257H236.255V117.043ZM244.089 118V112.17H245.101V113.754L245.002 113.358C245.163 112.955 245.435 112.647 245.816 112.434C246.197 112.221 246.667 112.115 247.224 112.115V113.138C247.18 113.131 247.136 113.127 247.092 113.127C247.055 113.127 247.019 113.127 246.982 113.127C246.417 113.127 245.97 113.296 245.64 113.633C245.31 113.97 245.145 114.458 245.145 115.096V118H244.089ZM250.969 118.066C250.382 118.066 249.861 117.938 249.407 117.681C248.952 117.424 248.593 117.072 248.329 116.625C248.065 116.17 247.933 115.657 247.933 115.085C247.933 114.506 248.065 113.992 248.329 113.545C248.593 113.098 248.952 112.749 249.407 112.5C249.861 112.243 250.382 112.115 250.969 112.115C251.548 112.115 252.065 112.243 252.52 112.5C252.982 112.749 253.341 113.098 253.598 113.545C253.862 113.985 253.994 114.498 253.994 115.085C253.994 115.664 253.862 116.178 253.598 116.625C253.341 117.072 252.982 117.424 252.52 117.681C252.065 117.938 251.548 118.066 250.969 118.066ZM250.969 117.142C251.343 117.142 251.676 117.058 251.97 116.889C252.27 116.72 252.505 116.482 252.674 116.174C252.842 115.859 252.927 115.496 252.927 115.085C252.927 114.667 252.842 114.308 252.674 114.007C252.505 113.699 252.27 113.461 251.97 113.292C251.676 113.123 251.343 113.039 250.969 113.039C250.595 113.039 250.261 113.123 249.968 113.292C249.674 113.461 249.44 113.699 249.264 114.007C249.088 114.308 249 114.667 249 115.085C249 115.496 249.088 115.859 249.264 116.174C249.44 116.482 249.674 116.72 249.968 116.889C250.261 117.058 250.595 117.142 250.969 117.142ZM258.545 118.066C258.061 118.066 257.617 117.956 257.214 117.736C256.818 117.509 256.499 117.175 256.257 116.735C256.022 116.295 255.905 115.745 255.905 115.085C255.905 114.425 256.019 113.875 256.246 113.435C256.481 112.995 256.796 112.665 257.192 112.445C257.595 112.225 258.046 112.115 258.545 112.115C259.117 112.115 259.623 112.24 260.063 112.489C260.503 112.738 260.851 113.087 261.108 113.534C261.365 113.974 261.493 114.491 261.493 115.085C261.493 115.679 261.365 116.2 261.108 116.647C260.851 117.094 260.503 117.443 260.063 117.692C259.623 117.941 259.117 118.066 258.545 118.066ZM255.454 120.134V112.17H256.466V113.743L256.4 115.096L256.51 116.449V120.134H255.454ZM258.457 117.142C258.831 117.142 259.165 117.058 259.458 116.889C259.759 116.72 259.993 116.482 260.162 116.174C260.338 115.859 260.426 115.496 260.426 115.085C260.426 114.667 260.338 114.308 260.162 114.007C259.993 113.699 259.759 113.461 259.458 113.292C259.165 113.123 258.831 113.039 258.457 113.039C258.09 113.039 257.757 113.123 257.456 113.292C257.163 113.461 256.928 113.699 256.752 114.007C256.583 114.308 256.499 114.667 256.499 115.085C256.499 115.496 256.583 115.859 256.752 116.174C256.928 116.482 257.163 116.72 257.456 116.889C257.757 117.058 258.09 117.142 258.457 117.142ZM265.906 118V112.17H266.962V118H265.906ZM266.434 111.048C266.229 111.048 266.057 110.982 265.917 110.85C265.785 110.718 265.719 110.557 265.719 110.366C265.719 110.168 265.785 110.003 265.917 109.871C266.057 109.739 266.229 109.673 266.434 109.673C266.64 109.673 266.808 109.739 266.94 109.871C267.08 109.996 267.149 110.153 267.149 110.344C267.149 110.542 267.083 110.711 266.951 110.85C266.819 110.982 266.647 111.048 266.434 111.048ZM276.272 112.115C276.741 112.115 277.155 112.207 277.515 112.39C277.874 112.573 278.153 112.852 278.351 113.226C278.556 113.6 278.659 114.073 278.659 114.645V118H277.603V114.766C277.603 114.201 277.471 113.776 277.207 113.49C276.943 113.204 276.572 113.061 276.096 113.061C275.744 113.061 275.436 113.134 275.172 113.281C274.908 113.428 274.702 113.644 274.556 113.93C274.416 114.216 274.347 114.572 274.347 114.997V118H273.291V114.766C273.291 114.201 273.159 113.776 272.895 113.49C272.638 113.204 272.268 113.061 271.784 113.061C271.439 113.061 271.135 113.134 270.871 113.281C270.607 113.428 270.401 113.644 270.255 113.93C270.108 114.216 270.035 114.572 270.035 114.997V118H268.979V112.17H269.991V113.721L269.826 113.325C270.009 112.944 270.291 112.647 270.673 112.434C271.054 112.221 271.498 112.115 272.004 112.115C272.561 112.115 273.041 112.254 273.445 112.533C273.848 112.804 274.112 113.219 274.237 113.776L273.808 113.6C273.984 113.153 274.292 112.793 274.732 112.522C275.172 112.251 275.685 112.115 276.272 112.115ZM284.221 118V116.768L284.166 116.537V114.436C284.166 113.989 284.034 113.644 283.77 113.402C283.513 113.153 283.124 113.028 282.604 113.028C282.259 113.028 281.922 113.087 281.592 113.204C281.262 113.314 280.983 113.464 280.756 113.655L280.316 112.863C280.616 112.621 280.976 112.438 281.394 112.313C281.819 112.181 282.263 112.115 282.725 112.115C283.524 112.115 284.14 112.309 284.573 112.698C285.005 113.087 285.222 113.681 285.222 114.48V118H284.221ZM282.307 118.066C281.874 118.066 281.493 117.993 281.163 117.846C280.84 117.699 280.591 117.498 280.415 117.241C280.239 116.977 280.151 116.68 280.151 116.35C280.151 116.035 280.224 115.749 280.371 115.492C280.525 115.235 280.77 115.03 281.108 114.876C281.452 114.722 281.914 114.645 282.494 114.645H284.342V115.404H282.538C282.01 115.404 281.654 115.492 281.471 115.668C281.287 115.844 281.196 116.057 281.196 116.306C281.196 116.592 281.309 116.823 281.537 116.999C281.764 117.168 282.079 117.252 282.483 117.252C282.879 117.252 283.223 117.164 283.517 116.988C283.817 116.812 284.034 116.555 284.166 116.218L284.375 116.944C284.235 117.289 283.99 117.564 283.638 117.769C283.286 117.967 282.842 118.066 282.307 118.066ZM289.728 120.2C289.192 120.2 288.672 120.123 288.166 119.969C287.667 119.822 287.26 119.61 286.945 119.331L287.451 118.517C287.722 118.752 288.056 118.935 288.452 119.067C288.848 119.206 289.262 119.276 289.695 119.276C290.384 119.276 290.89 119.115 291.213 118.792C291.535 118.469 291.697 117.978 291.697 117.318V116.086L291.807 114.931L291.752 113.765V112.17H292.753V117.208C292.753 118.235 292.496 118.99 291.983 119.474C291.469 119.958 290.718 120.2 289.728 120.2ZM289.596 117.758C289.031 117.758 288.525 117.641 288.078 117.406C287.638 117.164 287.286 116.83 287.022 116.405C286.765 115.98 286.637 115.488 286.637 114.931C286.637 114.366 286.765 113.875 287.022 113.457C287.286 113.032 287.638 112.702 288.078 112.467C288.525 112.232 289.031 112.115 289.596 112.115C290.094 112.115 290.549 112.218 290.96 112.423C291.37 112.621 291.697 112.929 291.939 113.347C292.188 113.765 292.313 114.293 292.313 114.931C292.313 115.562 292.188 116.086 291.939 116.504C291.697 116.922 291.37 117.237 290.96 117.45C290.549 117.655 290.094 117.758 289.596 117.758ZM289.717 116.834C290.105 116.834 290.45 116.753 290.751 116.592C291.051 116.431 291.286 116.207 291.455 115.921C291.631 115.635 291.719 115.305 291.719 114.931C291.719 114.557 291.631 114.227 291.455 113.941C291.286 113.655 291.051 113.435 290.751 113.281C290.45 113.12 290.105 113.039 289.717 113.039C289.328 113.039 288.98 113.12 288.672 113.281C288.371 113.435 288.133 113.655 287.957 113.941C287.788 114.227 287.704 114.557 287.704 114.931C287.704 115.305 287.788 115.635 287.957 115.921C288.133 116.207 288.371 116.431 288.672 116.592C288.98 116.753 289.328 116.834 289.717 116.834ZM297.367 118.066C296.743 118.066 296.193 117.938 295.717 117.681C295.247 117.424 294.881 117.072 294.617 116.625C294.36 116.178 294.232 115.664 294.232 115.085C294.232 114.506 294.356 113.992 294.606 113.545C294.862 113.098 295.211 112.749 295.651 112.5C296.098 112.243 296.6 112.115 297.158 112.115C297.722 112.115 298.221 112.24 298.654 112.489C299.086 112.738 299.424 113.09 299.666 113.545C299.915 113.992 300.04 114.517 300.04 115.118C300.04 115.162 300.036 115.213 300.029 115.272C300.029 115.331 300.025 115.386 300.018 115.437H295.057V114.678H299.468L299.039 114.942C299.046 114.568 298.969 114.234 298.808 113.941C298.646 113.648 298.423 113.42 298.137 113.259C297.858 113.09 297.532 113.006 297.158 113.006C296.791 113.006 296.465 113.09 296.179 113.259C295.893 113.42 295.669 113.651 295.508 113.952C295.346 114.245 295.266 114.583 295.266 114.964V115.14C295.266 115.529 295.354 115.877 295.53 116.185C295.713 116.486 295.966 116.72 296.289 116.889C296.611 117.058 296.982 117.142 297.4 117.142C297.744 117.142 298.056 117.083 298.335 116.966C298.621 116.849 298.87 116.673 299.083 116.438L299.666 117.12C299.402 117.428 299.072 117.663 298.676 117.824C298.287 117.985 297.851 118.066 297.367 118.066ZM304.614 118V111.653C304.614 111.081 304.779 110.626 305.109 110.289C305.446 109.944 305.923 109.772 306.539 109.772C306.766 109.772 306.983 109.801 307.188 109.86C307.401 109.911 307.58 109.996 307.727 110.113L307.408 110.916C307.298 110.828 307.173 110.762 307.034 110.718C306.895 110.667 306.748 110.641 306.594 110.641C306.286 110.641 306.051 110.729 305.89 110.905C305.729 111.074 305.648 111.327 305.648 111.664V112.445L305.67 112.929V118H304.614ZM303.624 113.039V112.17H307.342V113.039H303.624ZM310.749 118.066C310.162 118.066 309.642 117.938 309.187 117.681C308.732 117.424 308.373 117.072 308.109 116.625C307.845 116.17 307.713 115.657 307.713 115.085C307.713 114.506 307.845 113.992 308.109 113.545C308.373 113.098 308.732 112.749 309.187 112.5C309.642 112.243 310.162 112.115 310.749 112.115C311.328 112.115 311.845 112.243 312.3 112.5C312.762 112.749 313.121 113.098 313.378 113.545C313.642 113.985 313.774 114.498 313.774 115.085C313.774 115.664 313.642 116.178 313.378 116.625C313.121 117.072 312.762 117.424 312.3 117.681C311.845 117.938 311.328 118.066 310.749 118.066ZM310.749 117.142C311.123 117.142 311.457 117.058 311.75 116.889C312.051 116.72 312.285 116.482 312.454 116.174C312.623 115.859 312.707 115.496 312.707 115.085C312.707 114.667 312.623 114.308 312.454 114.007C312.285 113.699 312.051 113.461 311.75 113.292C311.457 113.123 311.123 113.039 310.749 113.039C310.375 113.039 310.041 113.123 309.748 113.292C309.455 113.461 309.22 113.699 309.044 114.007C308.868 114.308 308.78 114.667 308.78 115.085C308.78 115.496 308.868 115.859 309.044 116.174C309.22 116.482 309.455 116.72 309.748 116.889C310.041 117.058 310.375 117.142 310.749 117.142ZM315.234 118V109.838H316.29V118H315.234ZM320.716 118.066C320.151 118.066 319.645 117.941 319.198 117.692C318.758 117.443 318.409 117.094 318.153 116.647C317.896 116.2 317.768 115.679 317.768 115.085C317.768 114.491 317.896 113.974 318.153 113.534C318.409 113.087 318.758 112.738 319.198 112.489C319.645 112.24 320.151 112.115 320.716 112.115C321.207 112.115 321.651 112.225 322.047 112.445C322.443 112.665 322.758 112.995 322.993 113.435C323.235 113.875 323.356 114.425 323.356 115.085C323.356 115.745 323.238 116.295 323.004 116.735C322.776 117.175 322.465 117.509 322.069 117.736C321.673 117.956 321.222 118.066 320.716 118.066ZM320.804 117.142C321.17 117.142 321.5 117.058 321.794 116.889C322.094 116.72 322.329 116.482 322.498 116.174C322.674 115.859 322.762 115.496 322.762 115.085C322.762 114.667 322.674 114.308 322.498 114.007C322.329 113.699 322.094 113.461 321.794 113.292C321.5 113.123 321.17 113.039 320.804 113.039C320.43 113.039 320.096 113.123 319.803 113.292C319.509 113.461 319.275 113.699 319.099 114.007C318.923 114.308 318.835 114.667 318.835 115.085C318.835 115.496 318.923 115.859 319.099 116.174C319.275 116.482 319.509 116.72 319.803 116.889C320.096 117.058 320.43 117.142 320.804 117.142ZM322.795 118V116.427L322.861 115.074L322.751 113.721V109.838H323.807V118H322.795ZM328.401 118.066C327.777 118.066 327.227 117.938 326.751 117.681C326.281 117.424 325.915 117.072 325.651 116.625C325.394 116.178 325.266 115.664 325.266 115.085C325.266 114.506 325.39 113.992 325.64 113.545C325.896 113.098 326.245 112.749 326.685 112.5C327.132 112.243 327.634 112.115 328.192 112.115C328.756 112.115 329.255 112.24 329.688 112.489C330.12 112.738 330.458 113.09 330.7 113.545C330.949 113.992 331.074 114.517 331.074 115.118C331.074 115.162 331.07 115.213 331.063 115.272C331.063 115.331 331.059 115.386 331.052 115.437H326.091V114.678H330.502L330.073 114.942C330.08 114.568 330.003 114.234 329.842 113.941C329.68 113.648 329.457 113.42 329.171 113.259C328.892 113.09 328.566 113.006 328.192 113.006C327.825 113.006 327.499 113.09 327.213 113.259C326.927 113.42 326.703 113.651 326.542 113.952C326.38 114.245 326.3 114.583 326.3 114.964V115.14C326.3 115.529 326.388 115.877 326.564 116.185C326.747 116.486 327 116.72 327.323 116.889C327.645 117.058 328.016 117.142 328.434 117.142C328.778 117.142 329.09 117.083 329.369 116.966C329.655 116.849 329.904 116.673 330.117 116.438L330.7 117.12C330.436 117.428 330.106 117.663 329.71 117.824C329.321 117.985 328.885 118.066 328.401 118.066ZM332.54 118V112.17H333.552V113.754L333.453 113.358C333.614 112.955 333.886 112.647 334.267 112.434C334.648 112.221 335.118 112.115 335.675 112.115V113.138C335.631 113.131 335.587 113.127 335.543 113.127C335.506 113.127 335.47 113.127 335.433 113.127C334.868 113.127 334.421 113.296 334.091 113.633C333.761 113.97 333.596 114.458 333.596 115.096V118H332.54ZM343.119 112.115C343.596 112.115 344.014 112.207 344.373 112.39C344.74 112.573 345.026 112.852 345.231 113.226C345.436 113.6 345.539 114.073 345.539 114.645V118H344.483V114.766C344.483 114.201 344.344 113.776 344.065 113.49C343.794 113.204 343.409 113.061 342.91 113.061C342.536 113.061 342.21 113.134 341.931 113.281C341.652 113.428 341.436 113.644 341.282 113.93C341.135 114.216 341.062 114.572 341.062 114.997V118H340.006V109.838H341.062V113.743L340.853 113.325C341.044 112.944 341.337 112.647 341.733 112.434C342.129 112.221 342.591 112.115 343.119 112.115ZM350.089 118.066C349.466 118.066 348.916 117.938 348.439 117.681C347.97 117.424 347.603 117.072 347.339 116.625C347.083 116.178 346.954 115.664 346.954 115.085C346.954 114.506 347.079 113.992 347.328 113.545C347.585 113.098 347.933 112.749 348.373 112.5C348.821 112.243 349.323 112.115 349.88 112.115C350.445 112.115 350.944 112.24 351.376 112.489C351.809 112.738 352.146 113.09 352.388 113.545C352.638 113.992 352.762 114.517 352.762 115.118C352.762 115.162 352.759 115.213 352.751 115.272C352.751 115.331 352.748 115.386 352.74 115.437H347.779V114.678H352.19L351.761 114.942C351.769 114.568 351.692 114.234 351.53 113.941C351.369 113.648 351.145 113.42 350.859 113.259C350.581 113.09 350.254 113.006 349.88 113.006C349.514 113.006 349.187 113.09 348.901 113.259C348.615 113.42 348.392 113.651 348.23 113.952C348.069 114.245 347.988 114.583 347.988 114.964V115.14C347.988 115.529 348.076 115.877 348.252 116.185C348.436 116.486 348.689 116.72 349.011 116.889C349.334 117.058 349.704 117.142 350.122 117.142C350.467 117.142 350.779 117.083 351.057 116.966C351.343 116.849 351.593 116.673 351.805 116.438L352.388 117.12C352.124 117.428 351.794 117.663 351.398 117.824C351.01 117.985 350.573 118.066 350.089 118.066ZM354.229 118V112.17H355.241V113.754L355.142 113.358C355.303 112.955 355.574 112.647 355.956 112.434C356.337 112.221 356.806 112.115 357.364 112.115V113.138C357.32 113.131 357.276 113.127 357.232 113.127C357.195 113.127 357.158 113.127 357.122 113.127C356.557 113.127 356.11 113.296 355.78 113.633C355.45 113.97 355.285 114.458 355.285 115.096V118H354.229ZM361.207 118.066C360.584 118.066 360.034 117.938 359.557 117.681C359.088 117.424 358.721 117.072 358.457 116.625C358.201 116.178 358.072 115.664 358.072 115.085C358.072 114.506 358.197 113.992 358.446 113.545C358.703 113.098 359.051 112.749 359.491 112.5C359.939 112.243 360.441 112.115 360.998 112.115C361.563 112.115 362.062 112.24 362.494 112.489C362.927 112.738 363.264 113.09 363.506 113.545C363.756 113.992 363.88 114.517 363.88 115.118C363.88 115.162 363.877 115.213 363.869 115.272C363.869 115.331 363.866 115.386 363.858 115.437H358.897V114.678H363.308L362.879 114.942C362.887 114.568 362.81 114.234 362.648 113.941C362.487 113.648 362.263 113.42 361.977 113.259C361.699 113.09 361.372 113.006 360.998 113.006C360.632 113.006 360.305 113.09 360.019 113.259C359.733 113.42 359.51 113.651 359.348 113.952C359.187 114.245 359.106 114.583 359.106 114.964V115.14C359.106 115.529 359.194 115.877 359.37 116.185C359.554 116.486 359.807 116.72 360.129 116.889C360.452 117.058 360.822 117.142 361.24 117.142C361.585 117.142 361.897 117.083 362.175 116.966C362.461 116.849 362.711 116.673 362.923 116.438L363.506 117.12C363.242 117.428 362.912 117.663 362.516 117.824C362.128 117.985 361.691 118.066 361.207 118.066ZM370.303 118.066C369.716 118.066 369.261 117.908 368.939 117.593C368.616 117.278 368.455 116.827 368.455 116.24V110.894H369.511V116.196C369.511 116.511 369.588 116.753 369.742 116.922C369.903 117.091 370.13 117.175 370.424 117.175C370.754 117.175 371.029 117.083 371.249 116.9L371.579 117.659C371.417 117.798 371.223 117.901 370.996 117.967C370.776 118.033 370.545 118.066 370.303 118.066ZM367.465 113.039V112.17H371.183V113.039H367.465ZM375.159 118.066C374.572 118.066 374.052 117.938 373.597 117.681C373.142 117.424 372.783 117.072 372.519 116.625C372.255 116.17 372.123 115.657 372.123 115.085C372.123 114.506 372.255 113.992 372.519 113.545C372.783 113.098 373.142 112.749 373.597 112.5C374.052 112.243 374.572 112.115 375.159 112.115C375.738 112.115 376.255 112.243 376.71 112.5C377.172 112.749 377.531 113.098 377.788 113.545C378.052 113.985 378.184 114.498 378.184 115.085C378.184 115.664 378.052 116.178 377.788 116.625C377.531 117.072 377.172 117.424 376.71 117.681C376.255 117.938 375.738 118.066 375.159 118.066ZM375.159 117.142C375.533 117.142 375.867 117.058 376.16 116.889C376.461 116.72 376.695 116.482 376.864 116.174C377.033 115.859 377.117 115.496 377.117 115.085C377.117 114.667 377.033 114.308 376.864 114.007C376.695 113.699 376.461 113.461 376.16 113.292C375.867 113.123 375.533 113.039 375.159 113.039C374.785 113.039 374.451 113.123 374.158 113.292C373.865 113.461 373.63 113.699 373.454 114.007C373.278 114.308 373.19 114.667 373.19 115.085C373.19 115.496 373.278 115.859 373.454 116.174C373.63 116.482 373.865 116.72 374.158 116.889C374.451 117.058 374.785 117.142 375.159 117.142ZM385.096 118.066C384.509 118.066 383.988 117.938 383.534 117.681C383.079 117.424 382.72 117.072 382.456 116.625C382.192 116.17 382.06 115.657 382.06 115.085C382.06 114.506 382.192 113.992 382.456 113.545C382.72 113.098 383.079 112.749 383.534 112.5C383.988 112.243 384.509 112.115 385.096 112.115C385.675 112.115 386.192 112.243 386.647 112.5C387.109 112.749 387.468 113.098 387.725 113.545C387.989 113.985 388.121 114.498 388.121 115.085C388.121 115.664 387.989 116.178 387.725 116.625C387.468 117.072 387.109 117.424 386.647 117.681C386.192 117.938 385.675 118.066 385.096 118.066ZM385.096 117.142C385.47 117.142 385.803 117.058 386.097 116.889C386.397 116.72 386.632 116.482 386.801 116.174C386.969 115.859 387.054 115.496 387.054 115.085C387.054 114.667 386.969 114.308 386.801 114.007C386.632 113.699 386.397 113.461 386.097 113.292C385.803 113.123 385.47 113.039 385.096 113.039C384.722 113.039 384.388 113.123 384.095 113.292C383.801 113.461 383.567 113.699 383.391 114.007C383.215 114.308 383.127 114.667 383.127 115.085C383.127 115.496 383.215 115.859 383.391 116.174C383.567 116.482 383.801 116.72 384.095 116.889C384.388 117.058 384.722 117.142 385.096 117.142ZM392.672 118.066C392.188 118.066 391.744 117.956 391.341 117.736C390.945 117.509 390.626 117.175 390.384 116.735C390.149 116.295 390.032 115.745 390.032 115.085C390.032 114.425 390.146 113.875 390.373 113.435C390.608 112.995 390.923 112.665 391.319 112.445C391.722 112.225 392.173 112.115 392.672 112.115C393.244 112.115 393.75 112.24 394.19 112.489C394.63 112.738 394.978 113.087 395.235 113.534C395.492 113.974 395.62 114.491 395.62 115.085C395.62 115.679 395.492 116.2 395.235 116.647C394.978 117.094 394.63 117.443 394.19 117.692C393.75 117.941 393.244 118.066 392.672 118.066ZM389.581 120.134V112.17H390.593V113.743L390.527 115.096L390.637 116.449V120.134H389.581ZM392.584 117.142C392.958 117.142 393.292 117.058 393.585 116.889C393.886 116.72 394.12 116.482 394.289 116.174C394.465 115.859 394.553 115.496 394.553 115.085C394.553 114.667 394.465 114.308 394.289 114.007C394.12 113.699 393.886 113.461 393.585 113.292C393.292 113.123 392.958 113.039 392.584 113.039C392.217 113.039 391.884 113.123 391.583 113.292C391.29 113.461 391.055 113.699 390.879 114.007C390.71 114.308 390.626 114.667 390.626 115.085C390.626 115.496 390.71 115.859 390.879 116.174C391.055 116.482 391.29 116.72 391.583 116.889C391.884 117.058 392.217 117.142 392.584 117.142ZM399.675 118.066C399.052 118.066 398.502 117.938 398.025 117.681C397.556 117.424 397.189 117.072 396.925 116.625C396.668 116.178 396.54 115.664 396.54 115.085C396.54 114.506 396.665 113.992 396.914 113.545C397.171 113.098 397.519 112.749 397.959 112.5C398.406 112.243 398.909 112.115 399.466 112.115C400.031 112.115 400.529 112.24 400.962 112.489C401.395 112.738 401.732 113.09 401.974 113.545C402.223 113.992 402.348 114.517 402.348 115.118C402.348 115.162 402.344 115.213 402.337 115.272C402.337 115.331 402.333 115.386 402.326 115.437H397.365V114.678H401.776L401.347 114.942C401.354 114.568 401.277 114.234 401.116 113.941C400.955 113.648 400.731 113.42 400.445 113.259C400.166 113.09 399.84 113.006 399.466 113.006C399.099 113.006 398.773 113.09 398.487 113.259C398.201 113.42 397.977 113.651 397.816 113.952C397.655 114.245 397.574 114.583 397.574 114.964V115.14C397.574 115.529 397.662 115.877 397.838 116.185C398.021 116.486 398.274 116.72 398.597 116.889C398.92 117.058 399.29 117.142 399.708 117.142C400.053 117.142 400.364 117.083 400.643 116.966C400.929 116.849 401.178 116.673 401.391 116.438L401.974 117.12C401.71 117.428 401.38 117.663 400.984 117.824C400.595 117.985 400.159 118.066 399.675 118.066ZM406.927 112.115C407.404 112.115 407.822 112.207 408.181 112.39C408.548 112.573 408.834 112.852 409.039 113.226C409.245 113.6 409.347 114.073 409.347 114.645V118H408.291V114.766C408.291 114.201 408.152 113.776 407.873 113.49C407.602 113.204 407.217 113.061 406.718 113.061C406.344 113.061 406.018 113.134 405.739 113.281C405.461 113.428 405.244 113.644 405.09 113.93C404.944 114.216 404.87 114.572 404.87 114.997V118H403.814V112.17H404.826V113.743L404.661 113.325C404.852 112.944 405.145 112.647 405.541 112.434C405.937 112.221 406.399 112.115 406.927 112.115ZM414.256 118V112.17H415.312V118H414.256ZM414.784 111.048C414.579 111.048 414.406 110.982 414.267 110.85C414.135 110.718 414.069 110.557 414.069 110.366C414.069 110.168 414.135 110.003 414.267 109.871C414.406 109.739 414.579 109.673 414.784 109.673C414.989 109.673 415.158 109.739 415.29 109.871C415.429 109.996 415.499 110.153 415.499 110.344C415.499 110.542 415.433 110.711 415.301 110.85C415.169 110.982 414.997 111.048 414.784 111.048ZM419.33 118.066C418.743 118.066 418.289 117.908 417.966 117.593C417.643 117.278 417.482 116.827 417.482 116.24V110.894H418.538V116.196C418.538 116.511 418.615 116.753 418.769 116.922C418.93 117.091 419.158 117.175 419.451 117.175C419.781 117.175 420.056 117.083 420.276 116.9L420.606 117.659C420.445 117.798 420.25 117.901 420.023 117.967C419.803 118.033 419.572 118.066 419.33 118.066ZM416.492 113.039V112.17H420.21V113.039H416.492Z" fill="#3C78D8"/>
<path d="M238.631 139.088C238.044 139.088 237.498 138.989 236.992 138.791C236.493 138.593 236.061 138.318 235.694 137.966C235.327 137.607 235.041 137.189 234.836 136.712C234.631 136.235 234.528 135.715 234.528 135.15C234.528 134.585 234.631 134.065 234.836 133.588C235.041 133.111 235.327 132.697 235.694 132.345C236.061 131.986 236.493 131.707 236.992 131.509C237.491 131.311 238.037 131.212 238.631 131.212C239.218 131.212 239.757 131.311 240.248 131.509C240.747 131.7 241.179 131.975 241.546 132.334C241.92 132.686 242.206 133.1 242.404 133.577C242.609 134.054 242.712 134.578 242.712 135.15C242.712 135.722 242.609 136.246 242.404 136.723C242.206 137.2 241.92 137.618 241.546 137.977C241.179 138.329 240.747 138.604 240.248 138.802C239.757 138.993 239.218 139.088 238.631 139.088ZM238.631 138.109C239.056 138.109 239.449 138.036 239.808 137.889C240.175 137.742 240.49 137.537 240.754 137.273C241.025 137.002 241.234 136.686 241.381 136.327C241.535 135.968 241.612 135.575 241.612 135.15C241.612 134.725 241.535 134.332 241.381 133.973C241.234 133.614 241.025 133.302 240.754 133.038C240.49 132.767 240.175 132.558 239.808 132.411C239.449 132.264 239.056 132.191 238.631 132.191C238.198 132.191 237.799 132.264 237.432 132.411C237.073 132.558 236.757 132.767 236.486 133.038C236.215 133.302 236.002 133.614 235.848 133.973C235.701 134.332 235.628 134.725 235.628 135.15C235.628 135.575 235.701 135.968 235.848 136.327C236.002 136.686 236.215 137.002 236.486 137.273C236.757 137.537 237.073 137.742 237.432 137.889C237.799 138.036 238.198 138.109 238.631 138.109ZM247.33 139.066C246.846 139.066 246.403 138.956 245.999 138.736C245.603 138.509 245.284 138.175 245.042 137.735C244.808 137.295 244.69 136.745 244.69 136.085C244.69 135.425 244.804 134.875 245.031 134.435C245.266 133.995 245.581 133.665 245.977 133.445C246.381 133.225 246.832 133.115 247.33 133.115C247.902 133.115 248.408 133.24 248.848 133.489C249.288 133.738 249.637 134.087 249.893 134.534C250.15 134.974 250.278 135.491 250.278 136.085C250.278 136.679 250.15 137.2 249.893 137.647C249.637 138.094 249.288 138.443 248.848 138.692C248.408 138.941 247.902 139.066 247.33 139.066ZM244.239 141.134V133.17H245.251V134.743L245.185 136.096L245.295 137.449V141.134H244.239ZM247.242 138.142C247.616 138.142 247.95 138.058 248.243 137.889C248.544 137.72 248.779 137.482 248.947 137.174C249.123 136.859 249.211 136.496 249.211 136.085C249.211 135.667 249.123 135.308 248.947 135.007C248.779 134.699 248.544 134.461 248.243 134.292C247.95 134.123 247.616 134.039 247.242 134.039C246.876 134.039 246.542 134.123 246.241 134.292C245.948 134.461 245.713 134.699 245.537 135.007C245.369 135.308 245.284 135.667 245.284 136.085C245.284 136.496 245.369 136.859 245.537 137.174C245.713 137.482 245.948 137.72 246.241 137.889C246.542 138.058 246.876 138.142 247.242 138.142ZM254.333 139.066C253.71 139.066 253.16 138.938 252.683 138.681C252.214 138.424 251.847 138.072 251.583 137.625C251.327 137.178 251.198 136.664 251.198 136.085C251.198 135.506 251.323 134.992 251.572 134.545C251.829 134.098 252.177 133.749 252.617 133.5C253.065 133.243 253.567 133.115 254.124 133.115C254.689 133.115 255.188 133.24 255.62 133.489C256.053 133.738 256.39 134.09 256.632 134.545C256.882 134.992 257.006 135.517 257.006 136.118C257.006 136.162 257.003 136.213 256.995 136.272C256.995 136.331 256.992 136.386 256.984 136.437H252.023V135.678H256.434L256.005 135.942C256.013 135.568 255.936 135.234 255.774 134.941C255.613 134.648 255.389 134.42 255.103 134.259C254.825 134.09 254.498 134.006 254.124 134.006C253.758 134.006 253.431 134.09 253.145 134.259C252.859 134.42 252.636 134.651 252.474 134.952C252.313 135.245 252.232 135.583 252.232 135.964V136.14C252.232 136.529 252.32 136.877 252.496 137.185C252.68 137.486 252.933 137.72 253.255 137.889C253.578 138.058 253.948 138.142 254.366 138.142C254.711 138.142 255.023 138.083 255.301 137.966C255.587 137.849 255.837 137.673 256.049 137.438L256.632 138.12C256.368 138.428 256.038 138.663 255.642 138.824C255.254 138.985 254.817 139.066 254.333 139.066ZM261.586 133.115C262.062 133.115 262.48 133.207 262.84 133.39C263.206 133.573 263.492 133.852 263.698 134.226C263.903 134.6 264.006 135.073 264.006 135.645V139H262.95V135.766C262.95 135.201 262.81 134.776 262.532 134.49C262.26 134.204 261.875 134.061 261.377 134.061C261.003 134.061 260.676 134.134 260.398 134.281C260.119 134.428 259.903 134.644 259.749 134.93C259.602 135.216 259.529 135.572 259.529 135.997V139H258.473V133.17H259.485V134.743L259.32 134.325C259.51 133.944 259.804 133.647 260.2 133.434C260.596 133.221 261.058 133.115 261.586 133.115ZM268.914 139V133.17H269.97V139H268.914ZM269.442 132.048C269.237 132.048 269.064 131.982 268.925 131.85C268.793 131.718 268.727 131.557 268.727 131.366C268.727 131.168 268.793 131.003 268.925 130.871C269.064 130.739 269.237 130.673 269.442 130.673C269.647 130.673 269.816 130.739 269.948 130.871C270.087 130.996 270.157 131.153 270.157 131.344C270.157 131.542 270.091 131.711 269.959 131.85C269.827 131.982 269.655 132.048 269.442 132.048ZM279.279 133.115C279.749 133.115 280.163 133.207 280.522 133.39C280.882 133.573 281.16 133.852 281.358 134.226C281.564 134.6 281.666 135.073 281.666 135.645V139H280.61V135.766C280.61 135.201 280.478 134.776 280.214 134.49C279.95 134.204 279.58 134.061 279.103 134.061C278.751 134.061 278.443 134.134 278.179 134.281C277.915 134.428 277.71 134.644 277.563 134.93C277.424 135.216 277.354 135.572 277.354 135.997V139H276.298V135.766C276.298 135.201 276.166 134.776 275.902 134.49C275.646 134.204 275.275 134.061 274.791 134.061C274.447 134.061 274.142 134.134 273.878 134.281C273.614 134.428 273.409 134.644 273.262 134.93C273.116 135.216 273.042 135.572 273.042 135.997V139H271.986V133.17H272.998V134.721L272.833 134.325C273.017 133.944 273.299 133.647 273.68 133.434C274.062 133.221 274.505 133.115 275.011 133.115C275.569 133.115 276.049 133.254 276.452 133.533C276.856 133.804 277.12 134.219 277.244 134.776L276.815 134.6C276.991 134.153 277.299 133.793 277.739 133.522C278.179 133.251 278.693 133.115 279.279 133.115ZM287.228 139V137.768L287.173 137.537V135.436C287.173 134.989 287.041 134.644 286.777 134.402C286.521 134.153 286.132 134.028 285.611 134.028C285.267 134.028 284.929 134.087 284.599 134.204C284.269 134.314 283.991 134.464 283.763 134.655L283.323 133.863C283.624 133.621 283.983 133.438 284.401 133.313C284.827 133.181 285.27 133.115 285.732 133.115C286.532 133.115 287.148 133.309 287.58 133.698C288.013 134.087 288.229 134.681 288.229 135.48V139H287.228ZM285.314 139.066C284.882 139.066 284.5 138.993 284.17 138.846C283.848 138.699 283.598 138.498 283.422 138.241C283.246 137.977 283.158 137.68 283.158 137.35C283.158 137.035 283.232 136.749 283.378 136.492C283.532 136.235 283.778 136.03 284.115 135.876C284.46 135.722 284.922 135.645 285.501 135.645H287.349V136.404H285.545C285.017 136.404 284.662 136.492 284.478 136.668C284.295 136.844 284.203 137.057 284.203 137.306C284.203 137.592 284.317 137.823 284.544 137.999C284.772 138.168 285.087 138.252 285.49 138.252C285.886 138.252 286.231 138.164 286.524 137.988C286.825 137.812 287.041 137.555 287.173 137.218L287.382 137.944C287.243 138.289 286.997 138.564 286.645 138.769C286.293 138.967 285.85 139.066 285.314 139.066ZM292.736 141.2C292.2 141.2 291.68 141.123 291.174 140.969C290.675 140.822 290.268 140.61 289.953 140.331L290.459 139.517C290.73 139.752 291.064 139.935 291.46 140.067C291.856 140.206 292.27 140.276 292.703 140.276C293.392 140.276 293.898 140.115 294.221 139.792C294.543 139.469 294.705 138.978 294.705 138.318V137.086L294.815 135.931L294.76 134.765V133.17H295.761V138.208C295.761 139.235 295.504 139.99 294.991 140.474C294.477 140.958 293.726 141.2 292.736 141.2ZM292.604 138.758C292.039 138.758 291.533 138.641 291.086 138.406C290.646 138.164 290.294 137.83 290.03 137.405C289.773 136.98 289.645 136.488 289.645 135.931C289.645 135.366 289.773 134.875 290.03 134.457C290.294 134.032 290.646 133.702 291.086 133.467C291.533 133.232 292.039 133.115 292.604 133.115C293.102 133.115 293.557 133.218 293.968 133.423C294.378 133.621 294.705 133.929 294.947 134.347C295.196 134.765 295.321 135.293 295.321 135.931C295.321 136.562 295.196 137.086 294.947 137.504C294.705 137.922 294.378 138.237 293.968 138.45C293.557 138.655 293.102 138.758 292.604 138.758ZM292.725 137.834C293.113 137.834 293.458 137.753 293.759 137.592C294.059 137.431 294.294 137.207 294.463 136.921C294.639 136.635 294.727 136.305 294.727 135.931C294.727 135.557 294.639 135.227 294.463 134.941C294.294 134.655 294.059 134.435 293.759 134.281C293.458 134.12 293.113 134.039 292.725 134.039C292.336 134.039 291.988 134.12 291.68 134.281C291.379 134.435 291.141 134.655 290.965 134.941C290.796 135.227 290.712 135.557 290.712 135.931C290.712 136.305 290.796 136.635 290.965 136.921C291.141 137.207 291.379 137.431 291.68 137.592C291.988 137.753 292.336 137.834 292.725 137.834ZM300.374 139.066C299.751 139.066 299.201 138.938 298.724 138.681C298.255 138.424 297.888 138.072 297.624 137.625C297.368 137.178 297.239 136.664 297.239 136.085C297.239 135.506 297.364 134.992 297.613 134.545C297.87 134.098 298.218 133.749 298.658 133.5C299.106 133.243 299.608 133.115 300.165 133.115C300.73 133.115 301.229 133.24 301.661 133.489C302.094 133.738 302.431 134.09 302.673 134.545C302.923 134.992 303.047 135.517 303.047 136.118C303.047 136.162 303.044 136.213 303.036 136.272C303.036 136.331 303.033 136.386 303.025 136.437H298.064V135.678H302.475L302.046 135.942C302.054 135.568 301.977 135.234 301.815 134.941C301.654 134.648 301.43 134.42 301.144 134.259C300.866 134.09 300.539 134.006 300.165 134.006C299.799 134.006 299.472 134.09 299.186 134.259C298.9 134.42 298.677 134.651 298.515 134.952C298.354 135.245 298.273 135.583 298.273 135.964V136.14C298.273 136.529 298.361 136.877 298.537 137.185C298.721 137.486 298.974 137.72 299.296 137.889C299.619 138.058 299.989 138.142 300.407 138.142C300.752 138.142 301.064 138.083 301.342 137.966C301.628 137.849 301.878 137.673 302.09 137.438L302.673 138.12C302.409 138.428 302.079 138.663 301.683 138.824C301.295 138.985 300.858 139.066 300.374 139.066ZM307.622 139V132.653C307.622 132.081 307.787 131.626 308.117 131.289C308.454 130.944 308.931 130.772 309.547 130.772C309.774 130.772 309.99 130.801 310.196 130.86C310.408 130.911 310.588 130.996 310.735 131.113L310.416 131.916C310.306 131.828 310.181 131.762 310.042 131.718C309.902 131.667 309.756 131.641 309.602 131.641C309.294 131.641 309.059 131.729 308.898 131.905C308.736 132.074 308.656 132.327 308.656 132.664V133.445L308.678 133.929V139H307.622ZM306.632 134.039V133.17H310.35V134.039H306.632ZM313.757 139.066C313.17 139.066 312.649 138.938 312.195 138.681C311.74 138.424 311.381 138.072 311.117 137.625C310.853 137.17 310.721 136.657 310.721 136.085C310.721 135.506 310.853 134.992 311.117 134.545C311.381 134.098 311.74 133.749 312.195 133.5C312.649 133.243 313.17 133.115 313.757 133.115C314.336 133.115 314.853 133.243 315.308 133.5C315.77 133.749 316.129 134.098 316.386 134.545C316.65 134.985 316.782 135.498 316.782 136.085C316.782 136.664 316.65 137.178 316.386 137.625C316.129 138.072 315.77 138.424 315.308 138.681C314.853 138.938 314.336 139.066 313.757 139.066ZM313.757 138.142C314.131 138.142 314.464 138.058 314.758 137.889C315.058 137.72 315.293 137.482 315.462 137.174C315.63 136.859 315.715 136.496 315.715 136.085C315.715 135.667 315.63 135.308 315.462 135.007C315.293 134.699 315.058 134.461 314.758 134.292C314.464 134.123 314.131 134.039 313.757 134.039C313.383 134.039 313.049 134.123 312.756 134.292C312.462 134.461 312.228 134.699 312.052 135.007C311.876 135.308 311.788 135.667 311.788 136.085C311.788 136.496 311.876 136.859 312.052 137.174C312.228 137.482 312.462 137.72 312.756 137.889C313.049 138.058 313.383 138.142 313.757 138.142ZM318.242 139V130.838H319.298V139H318.242ZM323.723 139.066C323.159 139.066 322.653 138.941 322.205 138.692C321.765 138.443 321.417 138.094 321.16 137.647C320.904 137.2 320.775 136.679 320.775 136.085C320.775 135.491 320.904 134.974 321.16 134.534C321.417 134.087 321.765 133.738 322.205 133.489C322.653 133.24 323.159 133.115 323.723 133.115C324.215 133.115 324.658 133.225 325.054 133.445C325.45 133.665 325.766 133.995 326 134.435C326.242 134.875 326.363 135.425 326.363 136.085C326.363 136.745 326.246 137.295 326.011 137.735C325.784 138.175 325.472 138.509 325.076 138.736C324.68 138.956 324.229 139.066 323.723 139.066ZM323.811 138.142C324.178 138.142 324.508 138.058 324.801 137.889C325.102 137.72 325.337 137.482 325.505 137.174C325.681 136.859 325.769 136.496 325.769 136.085C325.769 135.667 325.681 135.308 325.505 135.007C325.337 134.699 325.102 134.461 324.801 134.292C324.508 134.123 324.178 134.039 323.811 134.039C323.437 134.039 323.104 134.123 322.81 134.292C322.517 134.461 322.282 134.699 322.106 135.007C321.93 135.308 321.842 135.667 321.842 136.085C321.842 136.496 321.93 136.859 322.106 137.174C322.282 137.482 322.517 137.72 322.81 137.889C323.104 138.058 323.437 138.142 323.811 138.142ZM325.802 139V137.427L325.868 136.074L325.758 134.721V130.838H326.814V139H325.802ZM331.409 139.066C330.785 139.066 330.235 138.938 329.759 138.681C329.289 138.424 328.923 138.072 328.659 137.625C328.402 137.178 328.274 136.664 328.274 136.085C328.274 135.506 328.398 134.992 328.648 134.545C328.904 134.098 329.253 133.749 329.693 133.5C330.14 133.243 330.642 133.115 331.2 133.115C331.764 133.115 332.263 133.24 332.696 133.489C333.128 133.738 333.466 134.09 333.708 134.545C333.957 134.992 334.082 135.517 334.082 136.118C334.082 136.162 334.078 136.213 334.071 136.272C334.071 136.331 334.067 136.386 334.06 136.437H329.099V135.678H333.51L333.081 135.942C333.088 135.568 333.011 135.234 332.85 134.941C332.688 134.648 332.465 134.42 332.179 134.259C331.9 134.09 331.574 134.006 331.2 134.006C330.833 134.006 330.507 134.09 330.221 134.259C329.935 134.42 329.711 134.651 329.55 134.952C329.388 135.245 329.308 135.583 329.308 135.964V136.14C329.308 136.529 329.396 136.877 329.572 137.185C329.755 137.486 330.008 137.72 330.331 137.889C330.653 138.058 331.024 138.142 331.442 138.142C331.786 138.142 332.098 138.083 332.377 137.966C332.663 137.849 332.912 137.673 333.125 137.438L333.708 138.12C333.444 138.428 333.114 138.663 332.718 138.824C332.329 138.985 331.893 139.066 331.409 139.066ZM335.548 139V133.17H336.56V134.754L336.461 134.358C336.622 133.955 336.894 133.647 337.275 133.434C337.656 133.221 338.126 133.115 338.683 133.115V134.138C338.639 134.131 338.595 134.127 338.551 134.127C338.514 134.127 338.478 134.127 338.441 134.127C337.876 134.127 337.429 134.296 337.099 134.633C336.769 134.97 336.604 135.458 336.604 136.096V139H335.548Z" fill="#404040"/>
<path d="M349.028 139.088C348.441 139.088 347.898 138.993 347.4 138.802C346.908 138.604 346.479 138.329 346.113 137.977C345.753 137.618 345.471 137.2 345.266 136.723C345.06 136.246 344.958 135.722 344.958 135.15C344.958 134.578 345.06 134.054 345.266 133.577C345.471 133.1 345.757 132.686 346.124 132.334C346.49 131.975 346.919 131.7 347.411 131.509C347.909 131.311 348.452 131.212 349.039 131.212C349.633 131.212 350.179 131.315 350.678 131.52C351.184 131.718 351.613 132.015 351.965 132.411L351.25 133.104C350.956 132.796 350.626 132.569 350.26 132.422C349.893 132.268 349.501 132.191 349.083 132.191C348.65 132.191 348.247 132.264 347.873 132.411C347.506 132.558 347.187 132.763 346.916 133.027C346.644 133.291 346.432 133.606 346.278 133.973C346.131 134.332 346.058 134.725 346.058 135.15C346.058 135.575 346.131 135.971 346.278 136.338C346.432 136.697 346.644 137.009 346.916 137.273C347.187 137.537 347.506 137.742 347.873 137.889C348.247 138.036 348.65 138.109 349.083 138.109C349.501 138.109 349.893 138.036 350.26 137.889C350.626 137.735 350.956 137.5 351.25 137.185L351.965 137.878C351.613 138.274 351.184 138.575 350.678 138.78C350.179 138.985 349.629 139.088 349.028 139.088ZM355.382 139.066C354.795 139.066 354.341 138.908 354.018 138.593C353.695 138.278 353.534 137.827 353.534 137.24V131.894H354.59V137.196C354.59 137.511 354.667 137.753 354.821 137.922C354.982 138.091 355.21 138.175 355.503 138.175C355.833 138.175 356.108 138.083 356.328 137.9L356.658 138.659C356.497 138.798 356.302 138.901 356.075 138.967C355.855 139.033 355.624 139.066 355.382 139.066ZM352.544 134.039V133.17H356.262V134.039H352.544ZM357.935 139V133.17H358.947V134.754L358.848 134.358C359.009 133.955 359.28 133.647 359.662 133.434C360.043 133.221 360.512 133.115 361.07 133.115V134.138C361.026 134.131 360.982 134.127 360.938 134.127C360.901 134.127 360.864 134.127 360.828 134.127C360.263 134.127 359.816 134.296 359.486 134.633C359.156 134.97 358.991 135.458 358.991 136.096V139H357.935ZM362.371 139V130.838H363.427V139H362.371ZM370.135 137.559V132.741H371.059V137.559H370.135ZM368.133 135.59V134.721H373.061V135.59H368.133ZM381.384 139.088C380.797 139.088 380.251 138.989 379.745 138.791C379.246 138.593 378.814 138.318 378.447 137.966C378.08 137.607 377.794 137.189 377.589 136.712C377.384 136.235 377.281 135.715 377.281 135.15C377.281 134.585 377.384 134.065 377.589 133.588C377.794 133.111 378.08 132.697 378.447 132.345C378.814 131.986 379.246 131.707 379.745 131.509C380.244 131.311 380.79 131.212 381.384 131.212C381.971 131.212 382.51 131.311 383.001 131.509C383.5 131.7 383.932 131.975 384.299 132.334C384.673 132.686 384.959 133.1 385.157 133.577C385.362 134.054 385.465 134.578 385.465 135.15C385.465 135.722 385.362 136.246 385.157 136.723C384.959 137.2 384.673 137.618 384.299 137.977C383.932 138.329 383.5 138.604 383.001 138.802C382.51 138.993 381.971 139.088 381.384 139.088ZM381.384 138.109C381.809 138.109 382.202 138.036 382.561 137.889C382.928 137.742 383.243 137.537 383.507 137.273C383.778 137.002 383.987 136.686 384.134 136.327C384.288 135.968 384.365 135.575 384.365 135.15C384.365 134.725 384.288 134.332 384.134 133.973C383.987 133.614 383.778 133.302 383.507 133.038C383.243 132.767 382.928 132.558 382.561 132.411C382.202 132.264 381.809 132.191 381.384 132.191C380.951 132.191 380.552 132.264 380.185 132.411C379.826 132.558 379.51 132.767 379.239 133.038C378.968 133.302 378.755 133.614 378.601 133.973C378.454 134.332 378.381 134.725 378.381 135.15C378.381 135.575 378.454 135.968 378.601 136.327C378.755 136.686 378.968 137.002 379.239 137.273C379.51 137.537 379.826 137.742 380.185 137.889C380.552 138.036 380.951 138.109 381.384 138.109Z" fill="#3C78D8"/>
<path d="M238.631 160.088C238.044 160.088 237.498 159.989 236.992 159.791C236.493 159.593 236.061 159.318 235.694 158.966C235.327 158.607 235.041 158.189 234.836 157.712C234.631 157.235 234.528 156.715 234.528 156.15C234.528 155.585 234.631 155.065 234.836 154.588C235.041 154.111 235.327 153.697 235.694 153.345C236.061 152.986 236.493 152.707 236.992 152.509C237.491 152.311 238.037 152.212 238.631 152.212C239.218 152.212 239.757 152.311 240.248 152.509C240.747 152.7 241.179 152.975 241.546 153.334C241.92 153.686 242.206 154.1 242.404 154.577C242.609 155.054 242.712 155.578 242.712 156.15C242.712 156.722 242.609 157.246 242.404 157.723C242.206 158.2 241.92 158.618 241.546 158.977C241.179 159.329 240.747 159.604 240.248 159.802C239.757 159.993 239.218 160.088 238.631 160.088ZM238.631 159.109C239.056 159.109 239.449 159.036 239.808 158.889C240.175 158.742 240.49 158.537 240.754 158.273C241.025 158.002 241.234 157.686 241.381 157.327C241.535 156.968 241.612 156.575 241.612 156.15C241.612 155.725 241.535 155.332 241.381 154.973C241.234 154.614 241.025 154.302 240.754 154.038C240.49 153.767 240.175 153.558 239.808 153.411C239.449 153.264 239.056 153.191 238.631 153.191C238.198 153.191 237.799 153.264 237.432 153.411C237.073 153.558 236.757 153.767 236.486 154.038C236.215 154.302 236.002 154.614 235.848 154.973C235.701 155.332 235.628 155.725 235.628 156.15C235.628 156.575 235.701 156.968 235.848 157.327C236.002 157.686 236.215 158.002 236.486 158.273C236.757 158.537 237.073 158.742 237.432 158.889C237.799 159.036 238.198 159.109 238.631 159.109ZM247.33 160.066C246.846 160.066 246.403 159.956 245.999 159.736C245.603 159.509 245.284 159.175 245.042 158.735C244.808 158.295 244.69 157.745 244.69 157.085C244.69 156.425 244.804 155.875 245.031 155.435C245.266 154.995 245.581 154.665 245.977 154.445C246.381 154.225 246.832 154.115 247.33 154.115C247.902 154.115 248.408 154.24 248.848 154.489C249.288 154.738 249.637 155.087 249.893 155.534C250.15 155.974 250.278 156.491 250.278 157.085C250.278 157.679 250.15 158.2 249.893 158.647C249.637 159.094 249.288 159.443 248.848 159.692C248.408 159.941 247.902 160.066 247.33 160.066ZM244.239 162.134V154.17H245.251V155.743L245.185 157.096L245.295 158.449V162.134H244.239ZM247.242 159.142C247.616 159.142 247.95 159.058 248.243 158.889C248.544 158.72 248.779 158.482 248.947 158.174C249.123 157.859 249.211 157.496 249.211 157.085C249.211 156.667 249.123 156.308 248.947 156.007C248.779 155.699 248.544 155.461 248.243 155.292C247.95 155.123 247.616 155.039 247.242 155.039C246.876 155.039 246.542 155.123 246.241 155.292C245.948 155.461 245.713 155.699 245.537 156.007C245.369 156.308 245.284 156.667 245.284 157.085C245.284 157.496 245.369 157.859 245.537 158.174C245.713 158.482 245.948 158.72 246.241 158.889C246.542 159.058 246.876 159.142 247.242 159.142ZM254.333 160.066C253.71 160.066 253.16 159.938 252.683 159.681C252.214 159.424 251.847 159.072 251.583 158.625C251.327 158.178 251.198 157.664 251.198 157.085C251.198 156.506 251.323 155.992 251.572 155.545C251.829 155.098 252.177 154.749 252.617 154.5C253.065 154.243 253.567 154.115 254.124 154.115C254.689 154.115 255.188 154.24 255.62 154.489C256.053 154.738 256.39 155.09 256.632 155.545C256.882 155.992 257.006 156.517 257.006 157.118C257.006 157.162 257.003 157.213 256.995 157.272C256.995 157.331 256.992 157.386 256.984 157.437H252.023V156.678H256.434L256.005 156.942C256.013 156.568 255.936 156.234 255.774 155.941C255.613 155.648 255.389 155.42 255.103 155.259C254.825 155.09 254.498 155.006 254.124 155.006C253.758 155.006 253.431 155.09 253.145 155.259C252.859 155.42 252.636 155.651 252.474 155.952C252.313 156.245 252.232 156.583 252.232 156.964V157.14C252.232 157.529 252.32 157.877 252.496 158.185C252.68 158.486 252.933 158.72 253.255 158.889C253.578 159.058 253.948 159.142 254.366 159.142C254.711 159.142 255.023 159.083 255.301 158.966C255.587 158.849 255.837 158.673 256.049 158.438L256.632 159.12C256.368 159.428 256.038 159.663 255.642 159.824C255.254 159.985 254.817 160.066 254.333 160.066ZM261.586 154.115C262.062 154.115 262.48 154.207 262.84 154.39C263.206 154.573 263.492 154.852 263.698 155.226C263.903 155.6 264.006 156.073 264.006 156.645V160H262.95V156.766C262.95 156.201 262.81 155.776 262.532 155.49C262.26 155.204 261.875 155.061 261.377 155.061C261.003 155.061 260.676 155.134 260.398 155.281C260.119 155.428 259.903 155.644 259.749 155.93C259.602 156.216 259.529 156.572 259.529 156.997V160H258.473V154.17H259.485V155.743L259.32 155.325C259.51 154.944 259.804 154.647 260.2 154.434C260.596 154.221 261.058 154.115 261.586 154.115ZM268.914 160V151.838H269.97V160H268.914ZM275.605 160V158.768L275.55 158.537V156.436C275.55 155.989 275.418 155.644 275.154 155.402C274.898 155.153 274.509 155.028 273.988 155.028C273.644 155.028 273.306 155.087 272.976 155.204C272.646 155.314 272.368 155.464 272.14 155.655L271.7 154.863C272.001 154.621 272.36 154.438 272.778 154.313C273.204 154.181 273.647 154.115 274.109 154.115C274.909 154.115 275.525 154.309 275.957 154.698C276.39 155.087 276.606 155.681 276.606 156.48V160H275.605ZM273.691 160.066C273.259 160.066 272.877 159.993 272.547 159.846C272.225 159.699 271.975 159.498 271.799 159.241C271.623 158.977 271.535 158.68 271.535 158.35C271.535 158.035 271.609 157.749 271.755 157.492C271.909 157.235 272.155 157.03 272.492 156.876C272.837 156.722 273.299 156.645 273.878 156.645H275.726V157.404H273.922C273.394 157.404 273.039 157.492 272.855 157.668C272.672 157.844 272.58 158.057 272.58 158.306C272.58 158.592 272.694 158.823 272.921 158.999C273.149 159.168 273.464 159.252 273.867 159.252C274.263 159.252 274.608 159.164 274.901 158.988C275.202 158.812 275.418 158.555 275.55 158.218L275.759 158.944C275.62 159.289 275.374 159.564 275.022 159.769C274.67 159.967 274.227 160.066 273.691 160.066ZM281.652 160.066C281.153 160.066 280.702 159.956 280.299 159.736C279.903 159.509 279.587 159.175 279.353 158.735C279.125 158.295 279.012 157.745 279.012 157.085C279.012 156.425 279.129 155.875 279.364 155.435C279.606 154.995 279.925 154.665 280.321 154.445C280.724 154.225 281.168 154.115 281.652 154.115C282.224 154.115 282.73 154.24 283.17 154.489C283.61 154.738 283.958 155.087 284.215 155.534C284.471 155.974 284.6 156.491 284.6 157.085C284.6 157.679 284.471 158.2 284.215 158.647C283.958 159.094 283.61 159.443 283.17 159.692C282.73 159.941 282.224 160.066 281.652 160.066ZM278.561 160V151.838H279.617V155.721L279.507 157.074L279.573 158.427V160H278.561ZM281.564 159.142C281.938 159.142 282.271 159.058 282.565 158.889C282.865 158.72 283.1 158.482 283.269 158.174C283.445 157.859 283.533 157.496 283.533 157.085C283.533 156.667 283.445 156.308 283.269 156.007C283.1 155.699 282.865 155.461 282.565 155.292C282.271 155.123 281.938 155.039 281.564 155.039C281.197 155.039 280.863 155.123 280.563 155.292C280.269 155.461 280.035 155.699 279.859 156.007C279.69 156.308 279.606 156.667 279.606 157.085C279.606 157.496 279.69 157.859 279.859 158.174C280.035 158.482 280.269 158.72 280.563 158.889C280.863 159.058 281.197 159.142 281.564 159.142ZM288.655 160.066C288.031 160.066 287.481 159.938 287.005 159.681C286.535 159.424 286.169 159.072 285.905 158.625C285.648 158.178 285.52 157.664 285.52 157.085C285.52 156.506 285.644 155.992 285.894 155.545C286.15 155.098 286.499 154.749 286.939 154.5C287.386 154.243 287.888 154.115 288.446 154.115C289.01 154.115 289.509 154.24 289.942 154.489C290.374 154.738 290.712 155.09 290.954 155.545C291.203 155.992 291.328 156.517 291.328 157.118C291.328 157.162 291.324 157.213 291.317 157.272C291.317 157.331 291.313 157.386 291.306 157.437H286.345V156.678H290.756L290.327 156.942C290.334 156.568 290.257 156.234 290.096 155.941C289.934 155.648 289.711 155.42 289.425 155.259C289.146 155.09 288.82 155.006 288.446 155.006C288.079 155.006 287.753 155.09 287.467 155.259C287.181 155.42 286.957 155.651 286.796 155.952C286.634 156.245 286.554 156.583 286.554 156.964V157.14C286.554 157.529 286.642 157.877 286.818 158.185C287.001 158.486 287.254 158.72 287.577 158.889C287.899 159.058 288.27 159.142 288.688 159.142C289.032 159.142 289.344 159.083 289.623 158.966C289.909 158.849 290.158 158.673 290.371 158.438L290.954 159.12C290.69 159.428 290.36 159.663 289.964 159.824C289.575 159.985 289.139 160.066 288.655 160.066ZM292.794 160V151.838H293.85V160H292.794ZM306.113 154.115C306.583 154.115 306.997 154.207 307.356 154.39C307.716 154.573 307.994 154.852 308.192 155.226C308.398 155.6 308.5 156.073 308.5 156.645V160H307.444V156.766C307.444 156.201 307.312 155.776 307.048 155.49C306.784 155.204 306.414 155.061 305.937 155.061C305.585 155.061 305.277 155.134 305.013 155.281C304.749 155.428 304.544 155.644 304.397 155.93C304.258 156.216 304.188 156.572 304.188 156.997V160H303.132V156.766C303.132 156.201 303 155.776 302.736 155.49C302.48 155.204 302.109 155.061 301.625 155.061C301.281 155.061 300.976 155.134 300.712 155.281C300.448 155.428 300.243 155.644 300.096 155.93C299.95 156.216 299.876 156.572 299.876 156.997V160H298.82V154.17H299.832V155.721L299.667 155.325C299.851 154.944 300.133 154.647 300.514 154.434C300.896 154.221 301.339 154.115 301.845 154.115C302.403 154.115 302.883 154.254 303.286 154.533C303.69 154.804 303.954 155.219 304.078 155.776L303.649 155.6C303.825 155.153 304.133 154.793 304.573 154.522C305.013 154.251 305.527 154.115 306.113 154.115ZM314.062 160V158.768L314.007 158.537V156.436C314.007 155.989 313.875 155.644 313.611 155.402C313.355 155.153 312.966 155.028 312.445 155.028C312.101 155.028 311.763 155.087 311.433 155.204C311.103 155.314 310.825 155.464 310.597 155.655L310.157 154.863C310.458 154.621 310.817 154.438 311.235 154.313C311.661 154.181 312.104 154.115 312.566 154.115C313.366 154.115 313.982 154.309 314.414 154.698C314.847 155.087 315.063 155.681 315.063 156.48V160H314.062ZM312.148 160.066C311.716 160.066 311.334 159.993 311.004 159.846C310.682 159.699 310.432 159.498 310.256 159.241C310.08 158.977 309.992 158.68 309.992 158.35C309.992 158.035 310.066 157.749 310.212 157.492C310.366 157.235 310.612 157.03 310.949 156.876C311.294 156.722 311.756 156.645 312.335 156.645H314.183V157.404H312.379C311.851 157.404 311.496 157.492 311.312 157.668C311.129 157.844 311.037 158.057 311.037 158.306C311.037 158.592 311.151 158.823 311.378 158.999C311.606 159.168 311.921 159.252 312.324 159.252C312.72 159.252 313.065 159.164 313.358 158.988C313.659 158.812 313.875 158.555 314.007 158.218L314.216 158.944C314.077 159.289 313.831 159.564 313.479 159.769C313.127 159.967 312.684 160.066 312.148 160.066ZM320.109 160.066C319.625 160.066 319.181 159.956 318.778 159.736C318.382 159.509 318.063 159.175 317.821 158.735C317.586 158.295 317.469 157.745 317.469 157.085C317.469 156.425 317.582 155.875 317.81 155.435C318.044 154.995 318.36 154.665 318.756 154.445C319.159 154.225 319.61 154.115 320.109 154.115C320.681 154.115 321.187 154.24 321.627 154.489C322.067 154.738 322.415 155.087 322.672 155.534C322.928 155.974 323.057 156.491 323.057 157.085C323.057 157.679 322.928 158.2 322.672 158.647C322.415 159.094 322.067 159.443 321.627 159.692C321.187 159.941 320.681 160.066 320.109 160.066ZM317.018 162.134V154.17H318.03V155.743L317.964 157.096L318.074 158.449V162.134H317.018ZM320.021 159.142C320.395 159.142 320.728 159.058 321.022 158.889C321.322 158.72 321.557 158.482 321.726 158.174C321.902 157.859 321.99 157.496 321.99 157.085C321.99 156.667 321.902 156.308 321.726 156.007C321.557 155.699 321.322 155.461 321.022 155.292C320.728 155.123 320.395 155.039 320.021 155.039C319.654 155.039 319.32 155.123 319.02 155.292C318.726 155.461 318.492 155.699 318.316 156.007C318.147 156.308 318.063 156.667 318.063 157.085C318.063 157.496 318.147 157.859 318.316 158.174C318.492 158.482 318.726 158.72 319.02 158.889C319.32 159.058 319.654 159.142 320.021 159.142Z" fill="#404040"/>
<path d="M333.484 160.088C332.897 160.088 332.354 159.993 331.856 159.802C331.364 159.604 330.935 159.329 330.569 158.977C330.209 158.618 329.927 158.2 329.722 157.723C329.516 157.246 329.414 156.722 329.414 156.15C329.414 155.578 329.516 155.054 329.722 154.577C329.927 154.1 330.213 153.686 330.58 153.334C330.946 152.975 331.375 152.7 331.867 152.509C332.365 152.311 332.908 152.212 333.495 152.212C334.089 152.212 334.635 152.315 335.134 152.52C335.64 152.718 336.069 153.015 336.421 153.411L335.706 154.104C335.412 153.796 335.082 153.569 334.716 153.422C334.349 153.268 333.957 153.191 333.539 153.191C333.106 153.191 332.703 153.264 332.329 153.411C331.962 153.558 331.643 153.763 331.372 154.027C331.1 154.291 330.888 154.606 330.734 154.973C330.587 155.332 330.514 155.725 330.514 156.15C330.514 156.575 330.587 156.971 330.734 157.338C330.888 157.697 331.1 158.009 331.372 158.273C331.643 158.537 331.962 158.742 332.329 158.889C332.703 159.036 333.106 159.109 333.539 159.109C333.957 159.109 334.349 159.036 334.716 158.889C335.082 158.735 335.412 158.5 335.706 158.185L336.421 158.878C336.069 159.274 335.64 159.575 335.134 159.78C334.635 159.985 334.085 160.088 333.484 160.088ZM339.838 160.066C339.251 160.066 338.797 159.908 338.474 159.593C338.151 159.278 337.99 158.827 337.99 158.24V152.894H339.046V158.196C339.046 158.511 339.123 158.753 339.277 158.922C339.438 159.091 339.666 159.175 339.959 159.175C340.289 159.175 340.564 159.083 340.784 158.9L341.114 159.659C340.953 159.798 340.758 159.901 340.531 159.967C340.311 160.033 340.08 160.066 339.838 160.066ZM337 155.039V154.17H340.718V155.039H337ZM342.391 160V154.17H343.403V155.754L343.304 155.358C343.465 154.955 343.736 154.647 344.118 154.434C344.499 154.221 344.968 154.115 345.526 154.115V155.138C345.482 155.131 345.438 155.127 345.394 155.127C345.357 155.127 345.32 155.127 345.284 155.127C344.719 155.127 344.272 155.296 343.942 155.633C343.612 155.97 343.447 156.458 343.447 157.096V160H342.391ZM346.827 160V151.838H347.883V160H346.827ZM354.592 158.559V153.741H355.516V158.559H354.592ZM352.59 156.59V155.721H357.518V156.59H352.59ZM362.364 160V152.3H363.464V159.043H367.633V160H362.364Z" fill="#3C78D8"/>
<path d="M235.155 181V173.3H236.255V181H235.155ZM245.699 175.115C246.169 175.115 246.583 175.207 246.942 175.39C247.302 175.573 247.58 175.852 247.778 176.226C247.984 176.6 248.086 177.073 248.086 177.645V181H247.03V177.766C247.03 177.201 246.898 176.776 246.634 176.49C246.37 176.204 246 176.061 245.523 176.061C245.171 176.061 244.863 176.134 244.599 176.281C244.335 176.428 244.13 176.644 243.983 176.93C243.844 177.216 243.774 177.572 243.774 177.997V181H242.718V177.766C242.718 177.201 242.586 176.776 242.322 176.49C242.066 176.204 241.695 176.061 241.211 176.061C240.867 176.061 240.562 176.134 240.298 176.281C240.034 176.428 239.829 176.644 239.682 176.93C239.536 177.216 239.462 177.572 239.462 177.997V181H238.406V175.17H239.418V176.721L239.253 176.325C239.437 175.944 239.719 175.647 240.1 175.434C240.482 175.221 240.925 175.115 241.431 175.115C241.989 175.115 242.469 175.254 242.872 175.533C243.276 175.804 243.54 176.219 243.664 176.776L243.235 176.6C243.411 176.153 243.719 175.793 244.159 175.522C244.599 175.251 245.113 175.115 245.699 175.115ZM253.12 181.066C252.636 181.066 252.193 180.956 251.789 180.736C251.393 180.509 251.074 180.175 250.832 179.735C250.598 179.295 250.48 178.745 250.48 178.085C250.48 177.425 250.594 176.875 250.821 176.435C251.056 175.995 251.371 175.665 251.767 175.445C252.171 175.225 252.622 175.115 253.12 175.115C253.692 175.115 254.198 175.24 254.638 175.489C255.078 175.738 255.427 176.087 255.683 176.534C255.94 176.974 256.068 177.491 256.068 178.085C256.068 178.679 255.94 179.2 255.683 179.647C255.427 180.094 255.078 180.443 254.638 180.692C254.198 180.941 253.692 181.066 253.12 181.066ZM250.029 183.134V175.17H251.041V176.743L250.975 178.096L251.085 179.449V183.134H250.029ZM253.032 180.142C253.406 180.142 253.74 180.058 254.033 179.889C254.334 179.72 254.569 179.482 254.737 179.174C254.913 178.859 255.001 178.496 255.001 178.085C255.001 177.667 254.913 177.308 254.737 177.007C254.569 176.699 254.334 176.461 254.033 176.292C253.74 176.123 253.406 176.039 253.032 176.039C252.666 176.039 252.332 176.123 252.031 176.292C251.738 176.461 251.503 176.699 251.327 177.007C251.159 177.308 251.074 177.667 251.074 178.085C251.074 178.496 251.159 178.859 251.327 179.174C251.503 179.482 251.738 179.72 252.031 179.889C252.332 180.058 252.666 180.142 253.032 180.142ZM260.024 181.066C259.438 181.066 258.917 180.938 258.462 180.681C258.008 180.424 257.648 180.072 257.384 179.625C257.12 179.17 256.988 178.657 256.988 178.085C256.988 177.506 257.12 176.992 257.384 176.545C257.648 176.098 258.008 175.749 258.462 175.5C258.917 175.243 259.438 175.115 260.024 175.115C260.604 175.115 261.121 175.243 261.575 175.5C262.037 175.749 262.397 176.098 262.653 176.545C262.917 176.985 263.049 177.498 263.049 178.085C263.049 178.664 262.917 179.178 262.653 179.625C262.397 180.072 262.037 180.424 261.575 180.681C261.121 180.938 260.604 181.066 260.024 181.066ZM260.024 180.142C260.398 180.142 260.732 180.058 261.025 179.889C261.326 179.72 261.561 179.482 261.729 179.174C261.898 178.859 261.982 178.496 261.982 178.085C261.982 177.667 261.898 177.308 261.729 177.007C261.561 176.699 261.326 176.461 261.025 176.292C260.732 176.123 260.398 176.039 260.024 176.039C259.65 176.039 259.317 176.123 259.023 176.292C258.73 176.461 258.495 176.699 258.319 177.007C258.143 177.308 258.055 177.667 258.055 178.085C258.055 178.496 258.143 178.859 258.319 179.174C258.495 179.482 258.73 179.72 259.023 179.889C259.317 180.058 259.65 180.142 260.024 180.142ZM264.51 181V175.17H265.522V176.754L265.423 176.358C265.584 175.955 265.855 175.647 266.237 175.434C266.618 175.221 267.087 175.115 267.645 175.115V176.138C267.601 176.131 267.557 176.127 267.513 176.127C267.476 176.127 267.439 176.127 267.403 176.127C266.838 176.127 266.391 176.296 266.061 176.633C265.731 176.97 265.566 177.458 265.566 178.096V181H264.51ZM271.185 181.066C270.598 181.066 270.143 180.908 269.821 180.593C269.498 180.278 269.337 179.827 269.337 179.24V173.894H270.393V179.196C270.393 179.511 270.47 179.753 270.624 179.922C270.785 180.091 271.012 180.175 271.306 180.175C271.636 180.175 271.911 180.083 272.131 179.9L272.461 180.659C272.299 180.798 272.105 180.901 271.878 180.967C271.658 181.033 271.427 181.066 271.185 181.066ZM268.347 176.039V175.17H272.065V176.039H268.347ZM280.31 181V179.768L280.255 179.537V177.436C280.255 176.989 280.123 176.644 279.859 176.402C279.603 176.153 279.214 176.028 278.693 176.028C278.349 176.028 278.011 176.087 277.681 176.204C277.351 176.314 277.073 176.464 276.845 176.655L276.405 175.863C276.706 175.621 277.065 175.438 277.483 175.313C277.909 175.181 278.352 175.115 278.814 175.115C279.614 175.115 280.23 175.309 280.662 175.698C281.095 176.087 281.311 176.681 281.311 177.48V181H280.31ZM278.396 181.066C277.964 181.066 277.582 180.993 277.252 180.846C276.93 180.699 276.68 180.498 276.504 180.241C276.328 179.977 276.24 179.68 276.24 179.35C276.24 179.035 276.314 178.749 276.46 178.492C276.614 178.235 276.86 178.03 277.197 177.876C277.542 177.722 278.004 177.645 278.583 177.645H280.431V178.404H278.627C278.099 178.404 277.744 178.492 277.56 178.668C277.377 178.844 277.285 179.057 277.285 179.306C277.285 179.592 277.399 179.823 277.626 179.999C277.854 180.168 278.169 180.252 278.572 180.252C278.968 180.252 279.313 180.164 279.606 179.988C279.907 179.812 280.123 179.555 280.255 179.218L280.464 179.944C280.325 180.289 280.079 180.564 279.727 180.769C279.375 180.967 278.932 181.066 278.396 181.066ZM286.379 175.115C286.855 175.115 287.273 175.207 287.633 175.39C287.999 175.573 288.285 175.852 288.491 176.226C288.696 176.6 288.799 177.073 288.799 177.645V181H287.743V177.766C287.743 177.201 287.603 176.776 287.325 176.49C287.053 176.204 286.668 176.061 286.17 176.061C285.796 176.061 285.469 176.134 285.191 176.281C284.912 176.428 284.696 176.644 284.542 176.93C284.395 177.216 284.322 177.572 284.322 177.997V181H283.266V175.17H284.278V176.743L284.113 176.325C284.303 175.944 284.597 175.647 284.993 175.434C285.389 175.221 285.851 175.115 286.379 175.115ZM293.866 175.115C294.343 175.115 294.761 175.207 295.12 175.39C295.487 175.573 295.773 175.852 295.978 176.226C296.183 176.6 296.286 177.073 296.286 177.645V181H295.23V177.766C295.23 177.201 295.091 176.776 294.812 176.49C294.541 176.204 294.156 176.061 293.657 176.061C293.283 176.061 292.957 176.134 292.678 176.281C292.399 176.428 292.183 176.644 292.029 176.93C291.882 177.216 291.809 177.572 291.809 177.997V181H290.753V175.17H291.765V176.743L291.6 176.325C291.791 175.944 292.084 175.647 292.48 175.434C292.876 175.221 293.338 175.115 293.866 175.115ZM300.737 181.066C300.151 181.066 299.63 180.938 299.175 180.681C298.721 180.424 298.361 180.072 298.097 179.625C297.833 179.17 297.701 178.657 297.701 178.085C297.701 177.506 297.833 176.992 298.097 176.545C298.361 176.098 298.721 175.749 299.175 175.5C299.63 175.243 300.151 175.115 300.737 175.115C301.317 175.115 301.834 175.243 302.288 175.5C302.75 175.749 303.11 176.098 303.366 176.545C303.63 176.985 303.762 177.498 303.762 178.085C303.762 178.664 303.63 179.178 303.366 179.625C303.11 180.072 302.75 180.424 302.288 180.681C301.834 180.938 301.317 181.066 300.737 181.066ZM300.737 180.142C301.111 180.142 301.445 180.058 301.738 179.889C302.039 179.72 302.274 179.482 302.442 179.174C302.611 178.859 302.695 178.496 302.695 178.085C302.695 177.667 302.611 177.308 302.442 177.007C302.274 176.699 302.039 176.461 301.738 176.292C301.445 176.123 301.111 176.039 300.737 176.039C300.363 176.039 300.03 176.123 299.736 176.292C299.443 176.461 299.208 176.699 299.032 177.007C298.856 177.308 298.768 177.667 298.768 178.085C298.768 178.496 298.856 178.859 299.032 179.174C299.208 179.482 299.443 179.72 299.736 179.889C300.03 180.058 300.363 180.142 300.737 180.142ZM307.225 181.066C306.638 181.066 306.183 180.908 305.861 180.593C305.538 180.278 305.377 179.827 305.377 179.24V173.894H306.433V179.196C306.433 179.511 306.51 179.753 306.664 179.922C306.825 180.091 307.052 180.175 307.346 180.175C307.676 180.175 307.951 180.083 308.171 179.9L308.501 180.659C308.339 180.798 308.145 180.901 307.918 180.967C307.698 181.033 307.467 181.066 307.225 181.066ZM304.387 176.039V175.17H308.105V176.039H304.387ZM313.396 181V179.768L313.341 179.537V177.436C313.341 176.989 313.209 176.644 312.945 176.402C312.689 176.153 312.3 176.028 311.779 176.028C311.435 176.028 311.097 176.087 310.767 176.204C310.437 176.314 310.159 176.464 309.931 176.655L309.491 175.863C309.792 175.621 310.151 175.438 310.569 175.313C310.995 175.181 311.438 175.115 311.9 175.115C312.7 175.115 313.316 175.309 313.748 175.698C314.181 176.087 314.397 176.681 314.397 177.48V181H313.396ZM311.482 181.066C311.05 181.066 310.668 180.993 310.338 180.846C310.016 180.699 309.766 180.498 309.59 180.241C309.414 179.977 309.326 179.68 309.326 179.35C309.326 179.035 309.4 178.749 309.546 178.492C309.7 178.235 309.946 178.03 310.283 177.876C310.628 177.722 311.09 177.645 311.669 177.645H313.517V178.404H311.713C311.185 178.404 310.83 178.492 310.646 178.668C310.463 178.844 310.371 179.057 310.371 179.306C310.371 179.592 310.485 179.823 310.712 179.999C310.94 180.168 311.255 180.252 311.658 180.252C312.054 180.252 312.399 180.164 312.692 179.988C312.993 179.812 313.209 179.555 313.341 179.218L313.55 179.944C313.411 180.289 313.165 180.564 312.813 180.769C312.461 180.967 312.018 181.066 311.482 181.066ZM318.354 181.066C317.767 181.066 317.312 180.908 316.99 180.593C316.667 180.278 316.506 179.827 316.506 179.24V173.894H317.562V179.196C317.562 179.511 317.639 179.753 317.793 179.922C317.954 180.091 318.181 180.175 318.475 180.175C318.805 180.175 319.08 180.083 319.3 179.9L319.63 180.659C319.468 180.798 319.274 180.901 319.047 180.967C318.827 181.033 318.596 181.066 318.354 181.066ZM315.516 176.039V175.17H319.234V176.039H315.516ZM320.906 181V175.17H321.962V181H320.906ZM321.434 174.048C321.229 174.048 321.057 173.982 320.917 173.85C320.785 173.718 320.719 173.557 320.719 173.366C320.719 173.168 320.785 173.003 320.917 172.871C321.057 172.739 321.229 172.673 321.434 172.673C321.64 172.673 321.808 172.739 321.94 172.871C322.08 172.996 322.149 173.153 322.149 173.344C322.149 173.542 322.083 173.711 321.951 173.85C321.819 173.982 321.647 174.048 321.434 174.048ZM326.476 181.066C325.889 181.066 325.368 180.938 324.914 180.681C324.459 180.424 324.1 180.072 323.836 179.625C323.572 179.17 323.44 178.657 323.44 178.085C323.44 177.506 323.572 176.992 323.836 176.545C324.1 176.098 324.459 175.749 324.914 175.5C325.368 175.243 325.889 175.115 326.476 175.115C327.055 175.115 327.572 175.243 328.027 175.5C328.489 175.749 328.848 176.098 329.105 176.545C329.369 176.985 329.501 177.498 329.501 178.085C329.501 178.664 329.369 179.178 329.105 179.625C328.848 180.072 328.489 180.424 328.027 180.681C327.572 180.938 327.055 181.066 326.476 181.066ZM326.476 180.142C326.85 180.142 327.183 180.058 327.477 179.889C327.777 179.72 328.012 179.482 328.181 179.174C328.349 178.859 328.434 178.496 328.434 178.085C328.434 177.667 328.349 177.308 328.181 177.007C328.012 176.699 327.777 176.461 327.477 176.292C327.183 176.123 326.85 176.039 326.476 176.039C326.102 176.039 325.768 176.123 325.475 176.292C325.181 176.461 324.947 176.699 324.771 177.007C324.595 177.308 324.507 177.667 324.507 178.085C324.507 178.496 324.595 178.859 324.771 179.174C324.947 179.482 325.181 179.72 325.475 179.889C325.768 180.058 326.102 180.142 326.476 180.142ZM334.074 175.115C334.551 175.115 334.969 175.207 335.328 175.39C335.695 175.573 335.981 175.852 336.186 176.226C336.391 176.6 336.494 177.073 336.494 177.645V181H335.438V177.766C335.438 177.201 335.299 176.776 335.02 176.49C334.749 176.204 334.364 176.061 333.865 176.061C333.491 176.061 333.165 176.134 332.886 176.281C332.607 176.428 332.391 176.644 332.237 176.93C332.09 177.216 332.017 177.572 332.017 177.997V181H330.961V175.17H331.973V176.743L331.808 176.325C331.999 175.944 332.292 175.647 332.688 175.434C333.084 175.221 333.546 175.115 334.074 175.115ZM340.12 181.066C339.636 181.066 339.174 181 338.734 180.868C338.302 180.736 337.961 180.575 337.711 180.384L338.151 179.548C338.401 179.717 338.709 179.86 339.075 179.977C339.442 180.094 339.816 180.153 340.197 180.153C340.689 180.153 341.041 180.083 341.253 179.944C341.473 179.805 341.583 179.61 341.583 179.361C341.583 179.178 341.517 179.035 341.385 178.932C341.253 178.829 341.077 178.752 340.857 178.701C340.645 178.65 340.406 178.606 340.142 178.569C339.878 178.525 339.614 178.474 339.35 178.415C339.086 178.349 338.844 178.261 338.624 178.151C338.404 178.034 338.228 177.876 338.096 177.678C337.964 177.473 337.898 177.201 337.898 176.864C337.898 176.512 337.997 176.204 338.195 175.94C338.393 175.676 338.672 175.474 339.031 175.335C339.398 175.188 339.831 175.115 340.329 175.115C340.711 175.115 341.096 175.163 341.484 175.258C341.88 175.346 342.203 175.474 342.452 175.643L342.001 176.479C341.737 176.303 341.462 176.182 341.176 176.116C340.89 176.05 340.604 176.017 340.318 176.017C339.856 176.017 339.512 176.094 339.284 176.248C339.057 176.395 338.943 176.585 338.943 176.82C338.943 177.018 339.009 177.172 339.141 177.282C339.281 177.385 339.457 177.465 339.669 177.524C339.889 177.583 340.131 177.634 340.395 177.678C340.659 177.715 340.923 177.766 341.187 177.832C341.451 177.891 341.69 177.975 341.902 178.085C342.122 178.195 342.298 178.349 342.43 178.547C342.57 178.745 342.639 179.009 342.639 179.339C342.639 179.691 342.537 179.995 342.331 180.252C342.126 180.509 341.836 180.71 341.462 180.857C341.088 180.996 340.641 181.066 340.12 181.066Z" fill="#404040"/>
<path d="M352.927 181.088C352.34 181.088 351.798 180.993 351.299 180.802C350.808 180.604 350.379 180.329 350.012 179.977C349.653 179.618 349.37 179.2 349.165 178.723C348.96 178.246 348.857 177.722 348.857 177.15C348.857 176.578 348.96 176.054 349.165 175.577C349.37 175.1 349.656 174.686 350.023 174.334C350.39 173.975 350.819 173.7 351.31 173.509C351.809 173.311 352.351 173.212 352.938 173.212C353.532 173.212 354.078 173.315 354.577 173.52C355.083 173.718 355.512 174.015 355.864 174.411L355.149 175.104C354.856 174.796 354.526 174.569 354.159 174.422C353.792 174.268 353.4 174.191 352.982 174.191C352.549 174.191 352.146 174.264 351.772 174.411C351.405 174.558 351.086 174.763 350.815 175.027C350.544 175.291 350.331 175.606 350.177 175.973C350.03 176.332 349.957 176.725 349.957 177.15C349.957 177.575 350.03 177.971 350.177 178.338C350.331 178.697 350.544 179.009 350.815 179.273C351.086 179.537 351.405 179.742 351.772 179.889C352.146 180.036 352.549 180.109 352.982 180.109C353.4 180.109 353.792 180.036 354.159 179.889C354.526 179.735 354.856 179.5 355.149 179.185L355.864 179.878C355.512 180.274 355.083 180.575 354.577 180.78C354.078 180.985 353.528 181.088 352.927 181.088ZM359.281 181.066C358.695 181.066 358.24 180.908 357.917 180.593C357.595 180.278 357.433 179.827 357.433 179.24V173.894H358.489V179.196C358.489 179.511 358.566 179.753 358.72 179.922C358.882 180.091 359.109 180.175 359.402 180.175C359.732 180.175 360.007 180.083 360.227 179.9L360.557 180.659C360.396 180.798 360.202 180.901 359.974 180.967C359.754 181.033 359.523 181.066 359.281 181.066ZM356.443 176.039V175.17H360.161V176.039H356.443ZM361.834 181V175.17H362.846V176.754L362.747 176.358C362.908 175.955 363.18 175.647 363.561 175.434C363.942 175.221 364.412 175.115 364.969 175.115V176.138C364.925 176.131 364.881 176.127 364.837 176.127C364.8 176.127 364.764 176.127 364.727 176.127C364.162 176.127 363.715 176.296 363.385 176.633C363.055 176.97 362.89 177.458 362.89 178.096V181H361.834ZM366.271 181V172.838H367.327V181H366.271ZM374.035 179.559V174.741H374.959V179.559H374.035ZM372.033 177.59V176.721H376.961V177.59H372.033ZM381.807 181V173.3H382.907V181H381.807Z" fill="#3C78D8"/>
<line x1="222.7" y1="184.706" x2="222.7" y2="106.3" stroke="#404040" stroke-width="0.6" stroke-linecap="square"/>
</svg>
